<svg width="326" height="131" viewBox="0 0 326 131" fill="none" xmlns="http://www.w3.org/2000/svg">
<g clip-path="url(#clip0_113_4)">
<path d="M260 56.613H73V70.613H260V56.613Z" fill="#BFFD00"/>
<path d="M74.713 56.566C74.713 68.206 71.9323 76.8067 66.371 82.368C60.8097 87.8647 52.1767 90.613 40.472 90.613H6.813L14.476 79.167L14.379 34.159L5.455 22.713H40.472C52.1767 22.713 60.8097 25.4614 66.371 30.958C71.9323 36.4547 74.713 44.9907 74.713 56.566ZM37.562 85.86C48.7493 85.86 54.343 75.9014 54.343 55.984C54.343 46.2194 52.985 39.0414 50.269 34.45C47.553 29.8587 43.3173 27.563 37.562 27.563H34.749V85.86H37.562ZM134.69 45.411H127.706L114.126 57.924L107.336 40.561H154.672L157.582 44.15L127.318 85.763H136.533L149.919 70.243L156.515 90.613H107.142L105.202 85.957L134.69 45.411ZM190.01 90.613H160.522L166.245 82.368V51.134L160.716 43.083L183.996 38.136V82.368L190.01 90.613ZM183.511 25.138L174.005 36.39L164.111 26.884L173.423 15.244L183.511 25.138ZM233.174 39.979C236.213 39.979 238.8 40.4317 240.934 41.337C243.068 42.2424 244.814 43.665 246.172 45.605C247.53 47.545 248.5 50.067 249.082 53.171C249.729 56.2104 250.084 59.9287 250.149 64.326L250.052 82.368L256.066 90.613H226.772L232.301 82.368L232.398 63.162C232.398 57.9887 231.881 54.3674 230.846 52.298C229.876 50.2287 228.162 49.194 225.705 49.194C222.601 49.194 219.529 50.6814 216.49 53.656V82.368L222.504 90.613H192.919L198.739 82.271L198.642 51.134L193.113 43.083L216.49 38.136V46.478C218.947 44.2147 221.502 42.5657 224.153 41.531C226.804 40.4317 229.811 39.9144 233.174 39.979Z" fill="black"/>
<path d="M103.996 60.729V65.579H79.455V60.729H103.996Z" fill="black"/>
<path d="M153 0H189V37H153V0Z" fill="white"/>
<path d="M158.449 22.373C157.049 21.323 155.771 19.373 156.794 17.944C158.416 15.6848 160.537 13.8308 162.994 12.5268C165.45 11.2228 168.174 10.5041 170.954 10.4266C173.734 10.3492 176.494 10.9152 179.019 12.0804C181.544 13.2456 183.766 14.9786 185.511 17.144C185.772 17.468 186.034 17.895 185.86 18.273C185.766 18.4382 185.632 18.5773 185.471 18.678C181.639 21.7314 177.179 23.9001 172.411 25.029C167.626 25.991 162.358 25.29 158.448 22.366L158.449 22.373ZM182.741 17.679C181.281 15.9848 179.449 14.6509 177.388 13.7813C175.327 12.9118 173.094 12.5301 170.861 12.666C166.359 13.0007 162.17 15.0918 159.196 18.488C159.079 18.5896 158.985 18.715 158.921 18.856C158.856 18.9969 158.823 19.1501 158.823 19.305C158.875 19.5108 158.988 19.696 159.147 19.836C162.074 22.896 166.78 23.562 170.968 22.931C175.294 22.2722 179.361 20.4577 182.741 17.679V17.679Z" fill="#120CFF"/>
<path d="M153.288 36.0039C153.059 35.8571 152.887 35.6373 152.798 35.3801C152.71 35.1228 152.711 34.8433 152.802 34.5869C152.997 34.0782 153.307 33.6215 153.708 33.253L158.29 28.3529C158.784 27.8249 159.547 27.253 160.152 27.653C160.325 27.7921 160.449 27.9821 160.508 28.1961C160.567 28.4101 160.557 28.6371 160.479 28.8449C160.315 29.2564 160.06 29.6256 159.734 29.925C158.158 31.4116 156.706 33.025 155.394 34.749C155.168 35.1369 154.883 35.4874 154.549 35.788C154.379 35.9372 154.172 36.0364 153.949 36.0745C153.726 36.1126 153.498 36.0882 153.288 36.0039V36.0039Z" fill="#120CFF"/>
<path d="M180.098 9.64295C179.67 9.10395 180.122 8.32997 180.563 7.80097L185.341 2.06898C185.595 1.71747 185.919 1.42229 186.293 1.20197C186.482 1.09617 186.698 1.04995 186.914 1.06941C187.129 1.08886 187.334 1.17305 187.501 1.31095C188.052 1.85895 187.553 2.77798 187.05 3.37098L182.323 8.96696C182.058 9.32909 181.717 9.62824 181.323 9.84297C181.124 9.94541 180.898 9.98127 180.677 9.94526C180.457 9.90925 180.254 9.80326 180.098 9.64295V9.64295Z" fill="#120CFF"/>
<path d="M181.681 27.52C181.352 27.308 181.118 26.9763 181.028 26.595C180.97 25.982 181.704 25.54 182.314 25.64C182.91 25.8063 183.449 26.134 183.871 26.587C184.824 27.4198 185.843 28.1737 186.918 28.841C187.411 29.0914 187.841 29.4496 188.177 29.889C188.337 30.1139 188.411 30.3891 188.384 30.6638C188.357 30.9386 188.232 31.1944 188.031 31.384C187.484 31.784 186.731 31.392 186.179 30.997C184.639 29.8924 183.14 28.7333 181.681 27.52Z" fill="#120CFF"/>
<path d="M159.542 12.2999C158.984 12.3999 158.503 11.9329 158.117 11.5189C156.903 10.2167 155.588 9.01289 154.183 7.91892C153.841 7.68788 153.545 7.39522 153.31 7.05591C153.177 6.89077 153.104 6.68562 153.103 6.47379C153.102 6.26196 153.172 6.05589 153.303 5.88907C153.433 5.72225 153.616 5.6045 153.822 5.55491C154.028 5.50532 154.245 5.5268 154.437 5.61591C154.827 5.76542 155.182 5.99233 155.482 6.28293L159.096 9.34693C159.615 9.71059 160.02 10.2131 160.266 10.7969C160.319 10.943 160.343 11.0983 160.335 11.2537C160.328 11.409 160.289 11.5613 160.222 11.7015C160.154 11.8416 160.059 11.9668 159.942 12.0696C159.826 12.1724 159.69 12.2507 159.542 12.2999V12.2999Z" fill="#120CFF"/>
<path d="M179.134 35.3269C178.949 35.4233 178.74 35.4651 178.532 35.4474C178.325 35.4297 178.126 35.3532 177.96 35.227C177.633 34.9691 177.358 34.6502 177.152 34.2879L174.552 30.3319C174.208 29.8069 173.866 29.0909 174.258 28.6009C174.423 28.4348 174.639 28.3294 174.871 28.302C175.103 28.2746 175.338 28.3267 175.537 28.4499C175.929 28.7074 176.255 29.0525 176.49 29.4579L178.952 33.0389C179.219 33.3769 179.415 33.7648 179.529 34.1799C179.583 34.3888 179.574 34.6089 179.504 34.8128C179.434 35.0167 179.305 35.1955 179.134 35.3269V35.3269Z" fill="#120CFF"/>
<path d="M174.478 0.00997101C175.154 0.171971 175.257 1.07796 175.213 1.77196L174.905 6.66497C174.864 7.30397 174.714 8.08996 174.105 8.27096C173.854 8.31429 173.595 8.26794 173.374 8.14001C173.153 8.01207 172.984 7.81069 172.897 7.57098C172.737 7.08541 172.697 6.56838 172.78 6.06396L173.139 1.80495C173.145 1.37626 173.242 0.95379 173.425 0.565971C173.521 0.374985 173.673 0.218689 173.862 0.11898C174.051 0.019271 174.266 -0.0188504 174.478 0.00997101V0.00997101Z" fill="#120CFF"/>
<path d="M163.231 0.515937C163.471 0.678721 163.672 0.892346 163.819 1.14158C163.967 1.39081 164.058 1.66954 164.086 1.95795L165.339 7.13193C165.416 7.32939 165.451 7.54077 165.442 7.75254C165.433 7.96431 165.38 8.17185 165.286 8.36195C165.188 8.46517 165.071 8.54737 164.94 8.60355C164.809 8.65974 164.669 8.68873 164.527 8.68873C164.384 8.68873 164.244 8.65974 164.113 8.60355C163.983 8.54737 163.865 8.46517 163.767 8.36195C163.39 7.92252 163.147 7.38425 163.067 6.81095L161.954 2.11594C161.85 1.79748 161.83 1.45755 161.895 1.12894C161.94 0.999145 162.011 0.879825 162.103 0.778297C162.195 0.676769 162.308 0.595176 162.433 0.538459C162.558 0.481742 162.693 0.451098 162.83 0.448432C162.967 0.445767 163.104 0.471136 163.231 0.522956V0.515937Z" fill="#120CFF"/>
<path d="M168.558 28.996C169.179 29.14 169.318 29.948 169.329 30.584L169.415 35.952C169.424 36.523 169.365 37.214 168.856 37.472C168.61 37.5603 168.339 37.5545 168.097 37.4557C167.854 37.357 167.657 37.1723 167.542 36.937C167.33 36.4559 167.243 35.9287 167.291 35.405L167.324 30.851C167.296 30.4207 167.364 29.9895 167.524 29.589C167.609 29.3913 167.755 29.2266 167.942 29.1196C168.128 29.0126 168.345 28.9692 168.558 28.996V28.996Z" fill="#120CFF"/>
<path d="M174.348 15.6199C174.555 16.1354 174.627 16.6947 174.56 17.2459C174.492 17.797 174.285 18.322 173.96 18.7719C173.411 19.4719 172.641 19.9653 171.776 20.1719C171.085 20.3621 170.357 20.3772 169.659 20.2159C168.961 20.0545 168.314 19.7219 167.776 19.248C167.254 18.7557 166.901 18.1109 166.768 17.4059C166.635 16.7009 166.728 15.9718 167.034 15.3229C167.319 14.8449 167.704 14.434 168.162 14.1183C168.621 13.8026 169.142 13.5897 169.69 13.494C170.593 13.2742 171.543 13.3641 172.388 13.7491C173.234 14.134 173.925 14.7919 174.352 15.6169L174.348 15.6199ZM172.229 16.5939C172.181 16.417 172.096 16.2522 171.98 16.1104C171.864 15.9685 171.719 15.8528 171.556 15.7709C171.392 15.6889 171.212 15.6425 171.029 15.6348C170.846 15.6271 170.663 15.6581 170.493 15.726C170.158 15.8895 169.886 16.1586 169.719 16.4918C169.552 16.825 169.5 17.2038 169.569 17.5699C169.574 17.6656 169.605 17.7582 169.657 17.8382C169.71 17.9181 169.783 17.9826 169.869 18.0249C170.396 18.215 170.976 18.1899 171.485 17.955C171.734 17.8325 171.94 17.6363 172.074 17.393C172.207 17.1496 172.263 16.871 172.233 16.5949L172.229 16.5939Z" fill="#120CFF"/>
<path d="M326 56.613H229V70.613H326V56.613Z" fill="#BFFD00" fill-opacity="0.81"/>
<path d="M0 56.441H54.329C54.329 56.441 54.412 61.204 54.178 64.888C54.0488 67.0221 53.8081 69.148 53.457 71.257L0 71.462V56.441Z" fill="#BFFD00" fill-opacity="0.81"/>
<path d="M279.437 68.303C279.954 72.8944 281.377 76.5157 283.705 79.167C286.033 81.8184 288.943 83.144 292.435 83.144C295.022 83.144 297.608 82.4004 300.195 80.913C302.846 79.4257 305.304 77.2917 307.567 74.511L310.574 76.451C308.893 79.167 307.147 81.495 305.336 83.435C303.59 85.375 301.747 86.9594 299.807 88.188C297.867 89.4167 295.798 90.322 293.599 90.904C291.4 91.486 289.008 91.777 286.421 91.777C282.606 91.777 279.114 91.195 275.945 90.031C272.841 88.8024 270.19 87.0887 267.991 84.89C265.792 82.6267 264.079 79.9107 262.85 76.742C261.621 73.5087 261.007 69.8874 261.007 65.878C261.007 61.804 261.621 58.118 262.85 54.82C264.079 51.4574 265.857 48.612 268.185 46.284C270.513 43.8914 273.358 42.0807 276.721 40.852C280.084 39.5587 283.899 38.912 288.167 38.912C292.823 38.912 296.735 39.6557 299.904 41.143C303.073 42.6304 305.53 44.6997 307.276 47.351C309.087 50.0024 310.251 53.1387 310.768 56.76C311.285 60.3167 311.188 64.1644 310.477 68.303H279.437ZM288.361 45.896C285.645 45.896 283.479 47.4804 281.862 50.649C280.245 53.753 279.372 57.9887 279.243 63.356H294.86C294.989 62.0627 295.054 60.4137 295.054 58.409C295.054 56.4044 294.86 54.4967 294.472 52.686C294.084 50.8107 293.405 49.2264 292.435 47.933C291.53 46.575 290.172 45.896 288.361 45.896Z" fill="black"/>
</g>
<defs>
<clipPath id="clip0_113_4">
<rect width="326" height="130.613" fill="white"/>
</clipPath>
</defs>
</svg>
