<svg id="Group_980" data-name="Group 980" xmlns="http://www.w3.org/2000/svg" width="151" height="159.115" viewBox="0 0 151 159.115">
  <path id="Path_2832" data-name="Path 2832" d="M33.666,344.712c-5.951-4.448-11.348-12.732-7.013-18.765a77.717,77.717,0,0,1,60-31.843,77.715,77.715,0,0,1,61.672,28.473c1.107,1.373,2.214,3.183,1.478,4.785a4.864,4.864,0,0,1-1.647,1.717c-16.582,12.361-35.059,22.834-55.335,26.909s-42.6,1.107-59.16-11.283M136.6,324.826c-12.04-14.572-31.477-22.311-50.344-21.241s-36.87,10.545-49.425,24.67a4.583,4.583,0,0,0-1.579,3.46,4.429,4.429,0,0,0,1.373,2.249c12.4,12.965,32.34,15.786,50.086,13.114A102.978,102.978,0,0,0,136.6,324.826Z" transform="translate(-9.498 -249.916)" fill="#0600ff"/>
  <path id="Path_2836" data-name="Path 2836" d="M22.314,353.628c-2.058-1.025-2.712-3.8-2.061-6.006a14.915,14.915,0,0,1,3.84-5.652l19.414-20.777c2.1-2.239,5.327-4.657,7.888-2.964a4.474,4.474,0,0,1,1.384,5.053,12.479,12.479,0,0,1-3.17,4.586c-6.331,6.642-13.227,12.852-18.387,20.44a18.382,18.382,0,0,1-3.581,4.4A5.171,5.171,0,0,1,22.314,353.628Z" transform="translate(-20.011 -201.075)" fill="#0600ff"/>
  <path id="Path_2837" data-name="Path 2837" d="M58.232,317.513c-1.813-2.285.1-5.563,1.972-7.805L80.45,285.422a13.336,13.336,0,0,1,4.034-3.671,4.546,4.546,0,0,1,5.12.464c2.335,2.322.219,6.218-1.911,8.729l-20.045,23.7a12.891,12.891,0,0,1-4.221,3.71,4.413,4.413,0,0,1-5.2-.844Z" transform="translate(57.669 -276.657)" fill="#0600ff"/>
  <path id="Path_2839" data-name="Path 2839" d="M61.8,323.078a6.4,6.4,0,0,1-2.768-3.919c-.246-2.6,2.866-4.47,5.447-4.045s4.632,2.3,6.6,4.013a98.716,98.716,0,0,0,12.91,9.549,15.6,15.6,0,0,1,5.336,4.442c1.245,1.977,1.266,4.954-.617,6.334-2.317,1.7-5.52.033-7.848-1.64Q71.071,330.789,61.8,323.078Z" transform="translate(60.802 -206.475)" fill="#0600ff"/>
  <path id="Path_2840" data-name="Path 2840" d="M47.706,315.948c-2.362.415-4.4-1.554-6.036-3.309A142.531,142.531,0,0,0,25,297.382a14.1,14.1,0,0,1-3.7-3.655,4.5,4.5,0,0,1-.05-4.927,4.471,4.471,0,0,1,4.826-1.176,13.1,13.1,0,0,1,4.428,2.826L45.82,303.432c2.037,1.726,4.168,3.6,4.958,6.143S50.336,315.49,47.706,315.948Z" transform="translate(-18.907 -263.823)" fill="#0600ff"/>
  <path id="Path_2841" data-name="Path 2841" d="M70.843,348.512a4.647,4.647,0,0,1-4.974-.415,13.666,13.666,0,0,1-3.425-3.979l-11.016-16.76c-1.459-2.224-2.906-5.259-1.245-7.334a4.383,4.383,0,0,1,5.419-.639,12.787,12.787,0,0,1,4.04,4.269l10.432,15.174a13.642,13.642,0,0,1,2.445,4.833,4.651,4.651,0,0,1-1.676,4.852Z" transform="translate(40.966 -198.832)" fill="#0600ff"/>
  <path id="Path_2842" data-name="Path 2842" d="M54.96,279.766c2.863.685,3.3,4.525,3.115,7.465l-1.3,20.732c-.172,2.707-.808,6.036-3.41,6.8-2.067.612-4.269-.977-5.12-2.962a13.439,13.439,0,0,1-.494-6.387l1.522-18.044a12.708,12.708,0,0,1,1.214-5.249,4.336,4.336,0,0,1,4.478-2.359Z" transform="translate(37.125 -279.724)" fill="#0600ff"/>
  <path id="Path_2843" data-name="Path 2843" d="M38.409,280.646c2.227,1.032,3.045,3.723,3.622,6.11l5.309,21.923c.423,1.745.805,3.736-.224,5.21-1.395,2-4.672,1.674-6.435-.01s-2.4-4.2-2.964-6.573L33,287.392a8.262,8.262,0,0,1-.252-4.181,4.279,4.279,0,0,1,5.66-2.566Z" transform="translate(6.021 -278.441)" fill="#0600ff"/>
  <path id="Path_2844" data-name="Path 2844" d="M45.461,319.74c2.629.609,3.219,4.034,3.266,6.73l.365,22.747c.04,2.42-.212,5.349-2.368,6.442-1.975,1-4.5-.329-5.569-2.267a13.109,13.109,0,0,1-1.066-6.49l.138-19.294a12.275,12.275,0,0,1,.844-5.349,4.2,4.2,0,0,1,4.388-2.519Z" transform="translate(21.539 -196.886)" fill="#0600ff"/>
  <path id="Path_2905" data-name="Path 2905" d="M71.688,307.59a13.938,13.938,0,0,1-1.644,13.356,16.682,16.682,0,0,1-9.255,5.941,18.291,18.291,0,0,1-16.968-3.914c-4.4-4.165-5.987-11.28-3.143-16.631a16.378,16.378,0,0,1,11.255-7.75c7.686-1.616,16.753,1.745,19.755,9m-9,4.141c-.537-3.1-4.451-4.884-7.357-3.677a7.222,7.222,0,0,0-3.916,7.812,2.285,2.285,0,0,0,1.259,1.926,9.025,9.025,0,0,0,6.847-.295,5.726,5.726,0,0,0,3.17-5.764Z" transform="translate(19.848 -241.407)" fill="#0600ff"/>
</svg>
