<svg xmlns="http://www.w3.org/2000/svg" width="35.844" height="52.042" viewBox="0 0 35.844 52.042">
  <path id="Path_889" data-name="Path 889" d="M679.741,1015.021a20.827,20.827,0,0,1,5.463-15.032c3.908-3.841,10.427-5.242,15.052-2.3,3.743,2.381,5.494,6.843,7.018,11.006a4,4,0,0,1-2.552,6.235,11.324,11.324,0,0,1-4.634,1.341,3.862,3.862,0,0,1-3.782-2.488,2.6,2.6,0,1,0-1.9,3.2,5.764,5.764,0,0,1,6.724,4.592,6.176,6.176,0,0,1-4.83,6.717c-.921.175-2,.2-2.588.927a3.111,3.111,0,0,0-.4,2.179l.729,11.139a4.332,4.332,0,0,1-2.449,3.837,12.774,12.774,0,0,1-4.624,1.175c-1.475.189-3.236.249-4.144-.93a4.331,4.331,0,0,1-.641-2.373l-1.01-14.673c-.075-1.13-1.428-1.7-2.552-1.661a10.926,10.926,0,0,1-3.347.1c-2.358-.668-2.722-3.829-2.535-6.274.151-2,.672-4.406,2.581-5a14.038,14.038,0,0,1,2.59-.188c.863-.1,1.82-.665,1.816-1.535m23.1-4.709c-.978-3.552-2.283-7.513-5.6-9.126-3.969-1.923-8.94.795-11.027,4.682s-2.072,8.521-2,12.932c.021,1.209-1.445,1.855-2.654,1.884a5.986,5.986,0,0,0-3.513.539c-.968.727-.507,2.816.652,2.466a5.689,5.689,0,0,1,6.99,4.9l.7,12.477a2.181,2.181,0,0,0,.565,1.625,1.507,1.507,0,0,0,2.1-.6,4.339,4.339,0,0,0,.353-2.42l-.428-8.9c-.123-2.556.266-5.858,2.737-6.515a11.263,11.263,0,0,1,2.362-.115,2.34,2.34,0,0,0,2.032-1c.367-.7-.209-1.8-.978-1.61a7.075,7.075,0,0,1-7.911-4.067,7.267,7.267,0,0,1,2.618-8.54,7.48,7.48,0,0,1,8.945.724,6.747,6.747,0,0,0,2.029,1.625c.823.331,1.985-.083,2.042-.949Z" transform="translate(-672.437 -995.848)" fill="#171717" stroke="#000" stroke-width="0.5"/>
</svg>
