<svg xmlns="http://www.w3.org/2000/svg" width="44.668" height="44.758" viewBox="0 0 44.668 44.758">
  <path id="Icon_zocial-github" data-name="Icon zocial-github" d="M44.668,22.154a21.545,21.545,0,0,0-1.79-8.683A21.618,21.618,0,0,0,31.017,1.61a21.951,21.951,0,0,0-17.366,0A21.805,21.805,0,0,0,1.79,13.471a21.952,21.952,0,0,0,0,17.366,21.966,21.966,0,0,0,11.861,11.95,21.951,21.951,0,0,0,17.366,0,21.775,21.775,0,0,0,11.861-11.95A21.545,21.545,0,0,0,44.668,22.154Zm-3.491,0a18.206,18.206,0,0,1-3.76,11.279A20.121,20.121,0,0,1,27.7,40.37V36.79a4.357,4.357,0,0,0-1.79-3.894,12.847,12.847,0,0,0,2.1-.313,10.575,10.575,0,0,0,3.894-1.432q4.073-2.462,4.073-8.907a8.048,8.048,0,0,0-2.238-5.729,7.53,7.53,0,0,0-.224-5.729h-.9a3.682,3.682,0,0,0-1.119.224,15.39,15.39,0,0,0-3.894,1.969,21.112,21.112,0,0,0-5.371-.716,21.629,21.629,0,0,0-5.416.716,19.068,19.068,0,0,0-3.267-1.79,4.852,4.852,0,0,0-2.059-.448l-.537.045a7.817,7.817,0,0,0-.224,5.729A8.048,8.048,0,0,0,8.5,22.244q0,5.013,2.462,7.564A9,9,0,0,0,14.5,32.046a15.391,15.391,0,0,0,4.073.85,4.455,4.455,0,0,0-1.835,3.894V40.37a20.27,20.27,0,0,1-9.533-7.027,18.24,18.24,0,0,1-3.67-11.189,18.863,18.863,0,0,1,1.477-7.34,19.042,19.042,0,0,1,17.321-11.5,19.034,19.034,0,0,1,7.34,1.522,19.679,19.679,0,0,1,6,3.983,20.762,20.762,0,0,1,4.028,6,18.863,18.863,0,0,1,1.477,7.34Z" transform="translate(0 0.18)"/>
</svg>
