<svg xmlns="http://www.w3.org/2000/svg" width="123.472" height="118.648" viewBox="0 0 123.472 118.648">
  <g id="Group_117" data-name="Group 117" transform="translate(-2575.874 -5663.88)">
    <path id="Path_187" data-name="Path 187" d="M77.08,20.146C83.216,15.221,89.433,10.4,95.653,5.582a4.055,4.055,0,0,0,1.594,1.143c4.95,4.192,13.145,13.434,19.983,16.287,1.508.629,3.491-.678,3.833-2.177A3.215,3.215,0,0,0,118.887,17C108.049,9.833,105.735,5.906,98.9.717a2.744,2.744,0,0,0-2.622.484,2.633,2.633,0,0,0-.253-.317,3.2,3.2,0,0,0-4.406,0C69.163,18.269,46.457,35.875,28.067,57.7A185.039,185.039,0,0,0,13.7,77.1a3.308,3.308,0,0,0-.221.434,2.641,2.641,0,0,0-1.756,1.989C10.162,90.942,5.258,101.389.318,111.678c-1.258,2.62,1.435,6.064,4.264,4.264a143.927,143.927,0,0,1,15.843-8.748q3.988-1.879,8.09-3.491,2.109-.824,4.243-1.58c.71-.252,1.42-.518,2.14-.739a3.9,3.9,0,0,1,.671-.155h0a5.482,5.482,0,0,1,1.269-.659,4.639,4.639,0,0,1,1.425-.8c.02-.01.041-.015.061-.025a5.5,5.5,0,0,1,1.3-.647c.141-.1.285-.2.435-.287.025-.015.052-.027.076-.041a2.747,2.747,0,0,0-.841-2.4c-2.94-2.536-6.348-.94-9.528.223q-2.485.91-4.937,1.911c.015-.116.031-.231.046-.346a3.1,3.1,0,0,0-.425-1.573,10.584,10.584,0,0,0-8.818-5.773,67.72,67.72,0,0,0,2.007-9.052,2.677,2.677,0,0,0,3.187-.728,30.766,30.766,0,0,1,9.03-6.833c.379-.188.77-.35,1.16-.51a31.778,31.778,0,0,1-.631,6.112c-.445,2.192,1.427,4.617,3.834,3.833A83.745,83.745,0,0,1,42.435,81.4q2.008-.434,4.038-.765c.593-.1,1.189-.192,1.785-.273.152-.02.3-.037.456-.056a22.384,22.384,0,0,1,.079,2.478c0,.191-.009.381-.006.572q-3.275,3.857-6.484,7.767a3.076,3.076,0,0,0,1.767,5.256l.014-.007c.368-.28.73-.567,1.109-.834.9-.636,1.853-1.142,2.8-1.683a4.447,4.447,0,0,1,.447-.409c.1-.127.211-.253.317-.38a5.185,5.185,0,0,1,2.019-2.536c.062-.061.113-.131.177-.189a12.36,12.36,0,0,1,2.275-3.168A5.475,5.475,0,0,1,54.9,85.643c.138-.115.275-.232.415-.345a503.44,503.44,0,0,1,47.65-48.379q8.591-7.611,17.524-14.823c1.31-1.059,1.1-3.305,0-4.407a3.19,3.19,0,0,0-4.407,0A504.291,504.291,0,0,0,57.208,73.67c-1.021,1.142-2.012,2.308-3.022,3.459a4.29,4.29,0,0,0-4.351-3.179,46.849,46.849,0,0,0-8.769,1.38c-1.314.279-2.615.6-3.911.946a29.211,29.211,0,0,0,.071-4.366c-.241-3.636-3.012-5.731-6.588-4.752a21.362,21.362,0,0,0-3.127,1.16C41.6,50.039,59.118,34.564,77.08,20.146M16.659,97.337a7.949,7.949,0,0,1,1.048.614,7.92,7.92,0,0,1,.791.793,7.462,7.462,0,0,1,.575.985,2.52,2.52,0,0,0,.791.9l-.014.006q-4.98,2.228-9.769,4.843c1.322-2.95,2.568-5.934,3.674-8.963a3.41,3.41,0,0,0,1.661.506l.07.006a7.485,7.485,0,0,1,1.172.313" transform="translate(2576.947 5664.999)" fill="#120cff" stroke="#120cff" stroke-width="2"/>
    <path id="Path_189" data-name="Path 189" d="M29.249,83.4c2.591-.615,7.531-3.222,10.7-4.766,1.607-.294,11.88-13.844,11.394-15.349-.557-1.721-9.518,5.851-14.128,9.171s-3.076,2.049-5.16,2.959c-1.974.861-4.155,1.611-6.123,2.489a2.612,2.612,0,0,0-1.348,1.663,3.185,3.185,0,0,0,.315,2.4,4.556,4.556,0,0,0,2.114,1.9" transform="translate(2582.977 5682.935)" fill="#120cff" stroke="#120cff" stroke-width="2"/>
  </g>
</svg>
