<svg id="search" xmlns="http://www.w3.org/2000/svg" width="78.01" height="38.167" viewBox="0 0 78.01 38.167">
  <path id="Path_1626" data-name="Path 1626" d="M381.39,924.553a11.631,11.631,0,0,1,5.886-10,14.961,14.961,0,0,1,11.783-1.09c5.873,1.814,10.789,7.719,9.753,13.778-.1.564.489.985,1,1.253,2.052,1.09,4.443,2.206,6.607,1.359,1.974-.772,4.187-.072,6.171.672a140.2,140.2,0,0,1,19.623,9.151c.843.476,1.791,1.136,1.8,2.1a2.821,2.821,0,0,1-.663,1.548l-2.756,3.959c-.909,1.3-2.472,2.776-3.838,1.961q-11.113-6.622-22.808-12.2c-.964-.459-.922-1.8-1.19-2.839a3.934,3.934,0,0,0-6.371-1.578,14.546,14.546,0,0,1-22.913-1.8,12.087,12.087,0,0,1-2.073-6.282m4.788-4.743c-2.261,3.085-1.668,7.721.889,10.565a12.058,12.058,0,0,0,10.467,3.479,11.066,11.066,0,0,0,3.6-1.057,8.282,8.282,0,0,0,4.045-4.541A8.927,8.927,0,0,0,402.617,919a12.078,12.078,0,0,0-9.449-2.816,9.9,9.9,0,0,0-6.974,3.617m32.792,12.935a3.094,3.094,0,0,0-2.226.073c-.661.378-.9,1.487-.238,1.872a55.215,55.215,0,0,0,9.8,4.535,2.176,2.176,0,0,0,1.053.176c.782-.131,1.168-1,1.422-1.753a.632.632,0,0,0-.355-.9,29.98,29.98,0,0,0-9.452-4m20.589,10.46c.226-.278.467-.626.352-.966a1.082,1.082,0,0,0-.549-.522l-5.924-3.384a.963.963,0,0,0-1.633.474l-1.113,2.175a1.155,1.155,0,0,0-.176.572c.019.387.4.641.736.832l5.138,2.9a1.065,1.065,0,0,0,1.7-.267Q438.842,944.113,439.579,943.2Z" transform="translate(-366.003 -912.73)" fill="#0600ff"/>
  <path id="Path_1627" data-name="Path 1627" d="M388.7,944.729a2.165,2.165,0,0,1-.389.812,1.381,1.381,0,0,1-1.734.216,1.663,1.663,0,0,1-.691-1.66,1.684,1.684,0,0,1,1.426-1.384,1.414,1.414,0,0,1,1.509,1.193A2.2,2.2,0,0,1,388.7,944.729Z" transform="translate(-365.899 -912.036)" fill="#0600ff"/>
  <path id="Path_1628" data-name="Path 1628" d="M391.386,939.986a1.491,1.491,0,0,1-.372.814,1.511,1.511,0,0,1-1.413.451,1.479,1.479,0,1,1,1.785-1.266Z" transform="translate(-365.837 -912.136)" fill="#0600ff"/>
  <path id="Path_1629" data-name="Path 1629" d="M378.565,939.2a1.476,1.476,0,1,1,1.625.115,1.476,1.476,0,0,1-1.625-.115Z" transform="translate(-366.08 -912.178)" fill="#0600ff"/>
  <path id="Path_1630" data-name="Path 1630" d="M376.1,943.307a1.552,1.552,0,1,1,.343-2.161A1.611,1.611,0,0,1,376.1,943.307Z" transform="translate(-366.182 -912.086)" fill="#0600ff"/>
  <path id="Path_1631" data-name="Path 1631" d="M384.306,947.222a1.463,1.463,0,1,1-.986,1.946,1.514,1.514,0,0,1,.986-1.946Z" transform="translate(-365.96 -911.932)" fill="#0600ff"/>
  <path id="Path_1632" data-name="Path 1632" d="M373.157,931.541a1.471,1.471,0,1,1,.865-1.539,1.471,1.471,0,0,1-.865,1.539Z" transform="translate(-366.241 -912.359)" fill="#0600ff"/>
  <path id="Path_1633" data-name="Path 1633" d="M381.946,934.121a1.34,1.34,0,1,1,1.249,1.1A1.383,1.383,0,0,1,381.946,934.121Z" transform="translate(-365.99 -912.271)" fill="#0600ff"/>
  <path id="Path_1634" data-name="Path 1634" d="M377.48,929.241a1.361,1.361,0,1,1,.977-.229,1.378,1.378,0,0,1-.977.229Z" transform="translate(-366.12 -912.409)" fill="#0600ff"/>
  <path id="Path_1635" data-name="Path 1635" d="M367.158,931.672a1.452,1.452,0,0,1,1.451,2.51,1.532,1.532,0,0,1-2.258-1.19,1.488,1.488,0,0,1,.807-1.32Z" transform="translate(-366.351 -912.294)" fill="#0600ff"/>
  <path id="Path_1636" data-name="Path 1636" d="M391.8,922.549a4.574,4.574,0,0,0,.687,3.879c.561.773,1.421,1.576,1.153,2.491a1.536,1.536,0,0,1-1.867.88,3.283,3.283,0,0,1-1.738-1.412,8.213,8.213,0,0,1-1.145-6.808,3.215,3.215,0,0,1,1.131-1.843,1.493,1.493,0,0,1,1.987.185C392.551,920.658,392.052,921.668,391.8,922.549Z" transform="translate(-365.836 -912.574)" fill="#0600ff"/>
</svg>
