<svg xmlns="http://www.w3.org/2000/svg" width="34.875" height="34.875" viewBox="0 0 34.875 34.875">
  <g id="Icon_awesome-check-circle" data-name="Icon awesome-check-circle" transform="translate(-0.563 -0.563)" fill="none">
    <path d="M35.438,18A17.438,17.438,0,1,1,18,.563,17.437,17.437,0,0,1,35.438,18Z" stroke="none"/>
    <path d="M 18 3.5625 C 14.14359092712402 3.5625 10.51800918579102 5.064260482788086 7.791139602661133 7.791139602661133 C 5.064260482788086 10.51800918579102 3.5625 14.14359092712402 3.5625 18 C 3.5625 21.85641098022461 5.064260482788086 25.48199081420898 7.791139602661133 28.20886039733887 C 10.51800918579102 30.93573951721191 14.14359092712402 32.4375 18 32.4375 C 21.85641098022461 32.4375 25.48199081420898 30.93573951721191 28.20886039733887 28.20886039733887 C 30.93573951721191 25.48199081420898 32.4375 21.85641098022461 32.4375 18 C 32.4375 14.14359092712402 30.93573951721191 10.51800918579102 28.20886039733887 7.791139602661133 C 25.48199081420898 5.064260482788086 21.85641098022461 3.5625 18 3.5625 M 18 0.5625 C 27.63048934936523 0.5625 35.4375 8.369510650634766 35.4375 18 C 35.4375 27.63048934936523 27.63048934936523 35.4375 18 35.4375 C 8.369510650634766 35.4375 0.5625 27.63048934936523 0.5625 18 C 0.5625 8.369510650634766 8.369510650634766 0.5625 18 0.5625 Z" stroke="none" fill="#120cff"/>
  </g>
</svg>
