<svg xmlns="http://www.w3.org/2000/svg" width="101.854" height="119.606" viewBox="0 0 101.854 119.606">
  <g id="Group_116" data-name="Group 116" transform="translate(-2236.5 -5702.506)">
    <path id="Path_180" data-name="Path 180" d="M18.48,113.362c18.213,3.117,37.407,6.069,54.926-1.662a9.7,9.7,0,0,0,5.877-6.427c1.106-3.873,1.877-7.9,2.66-11.847,1.866-9.409,3.118-18.937,4.044-28.482,1.04-10.741,1.653-21.517,2.265-32.289.182-3.215-4.818-3.2-5,0-1.029,18.124-2.04,36.313-5.16,54.223q-1.16,6.657-2.725,13.234c-.335,1.4-.581,2.83-1.016,4.2a3.353,3.353,0,0,1-1.206,1.857,17.726,17.726,0,0,1-4.63,2.146,53.671,53.671,0,0,1-6.111,1.809,62.311,62.311,0,0,1-12.432,1.546c-10.15.29-20.2-1.425-30.163-3.13a2.573,2.573,0,0,0-3.075,1.746,2.521,2.521,0,0,0,1.746,3.075" transform="translate(2238 5704)" fill="#120cff" stroke="#120cff" stroke-linecap="round" stroke-linejoin="round" stroke-width="3"/>
    <path id="Path_181" data-name="Path 181" d="M21.734,109.749c-5.2-8.721-6.961-18.878-7.849-28.858-1-11.225-1.605-22.53-1.976-33.792-.221-6.674-.271-13.353-.04-20.028.111-3.218-4.889-3.214-5,0-.416,12.038.1,24.078.818,36.094.65,10.894.967,22,3.379,32.689a56.023,56.023,0,0,0,6.351,16.419c1.647,2.76,5.971.249,4.317-2.524" transform="translate(2238 5704)" fill="#120cff" stroke="#120cff" stroke-linecap="round" stroke-linejoin="round" stroke-width="3"/>
    <path id="Path_182" data-name="Path 182" d="M37.051,99.664C30.963,83.5,30.291,66.1,31.341,49.039c.3-4.945.753-9.88,1.261-14.807a2.516,2.516,0,0,0-2.5-2.5,2.557,2.557,0,0,0-2.5,2.5c-1.8,17.4-2.835,35.139.568,52.423a89.818,89.818,0,0,0,4.06,14.338,2.569,2.569,0,0,0,3.075,1.746,2.519,2.519,0,0,0,1.746-3.075" transform="translate(2238 5704)" fill="#120cff" stroke="#120cff" stroke-linecap="round" stroke-linejoin="round" stroke-width="3"/>
    <path id="Path_183" data-name="Path 183" d="M51.925,101.378q.111-26,1.192-51.976.306-7.307.69-14.61c.168-3.216-4.832-3.207-5,0q-1.359,25.926-1.744,51.892-.108,7.347-.138,14.694c-.014,3.218,4.986,3.222,5,0" transform="translate(2238 5704)" fill="#120cff" stroke="#120cff" stroke-linecap="round" stroke-linejoin="round" stroke-width="3"/>
    <path id="Path_184" data-name="Path 184" d="M65.828,102.65c.363-8.957,2.147-17.741,3.6-26.564a136.014,136.014,0,0,0,2.049-27.04,122.136,122.136,0,0,0-1.592-15.479,2.52,2.52,0,0,0-3.076-1.746A2.56,2.56,0,0,0,65.059,34.9a113.6,113.6,0,0,1,1.212,26.412c-.612,8.776-2.429,17.388-3.791,26.063a133.485,133.485,0,0,0-1.652,15.279c-.131,3.218,4.87,3.212,5,0" transform="translate(2238 5704)" fill="#120cff" stroke="#120cff" stroke-linecap="round" stroke-linejoin="round" stroke-width="3"/>
    <path id="Path_185" data-name="Path 185" d="M2.408,18.486q36.529,1.956,73.134,1.6,10.451-.1,20.9-.4c3.211-.09,3.224-5.091,0-5q-36.567,1.023-73.15-.268-10.446-.371-20.883-.932c-3.215-.172-3.206,4.828,0,5" transform="translate(2238 5704)" fill="#120cff" stroke="#120cff" stroke-linecap="round" stroke-linejoin="round" stroke-width="3"/>
    <path id="Path_186" data-name="Path 186" d="M40.969,8.355A6.05,6.05,0,0,1,42.113,5.76c.135-.169.738-.8.716-.787a12.613,12.613,0,0,1,1.388.417,45.1,45.1,0,0,0,8.027,1.728,44.16,44.16,0,0,0,7.737.271c.81-.039,1.569-.2,2.169.4A7.979,7.979,0,0,1,63.511,10.3a2.515,2.515,0,0,0,3.421.9,2.565,2.565,0,0,0,.9-3.42c-1.2-2.8-3.019-5.12-6.258-5.388-1.527-.127-3.087.092-4.62.068a37.678,37.678,0,0,1-4.977-.379A40.66,40.66,0,0,1,47.129,1.04C45.555.605,44-.133,42.335.02c-3.288.3-5.562,4.084-6.187,7.006-.673,3.138,4.146,4.479,4.821,1.329" transform="translate(2238 5704)" fill="#120cff" stroke="#120cff" stroke-linecap="round" stroke-linejoin="round" stroke-width="3"/>
  </g>
</svg>
