<svg xmlns="http://www.w3.org/2000/svg" width="19.406" height="27" viewBox="0 0 19.406 27">
  <g id="Icon_ionic-ios-trash" data-name="Icon ionic-ios-trash" transform="translate(-8.297 -4.5)">
    <path id="Path_156" data-name="Path 156" d="M9.359,9l1.659,20.44a2.059,2.059,0,0,0,2.06,2.06h9.914a2.059,2.059,0,0,0,2.06-2.06L26.691,9ZM13.69,27.633,13.219,11.25h1.3L15,27.633Zm4.943,0H17.367V11.25h1.266Zm3.677,0H21L21.48,11.25h1.3Z"/>
    <path id="Path_157" data-name="Path 157" d="M25.594,6.469H23.063L21.213,4.852a1.425,1.425,0,0,0-.928-.352H15.729a1.448,1.448,0,0,0-.942.352L12.938,6.469H10.406C9.169,6.469,8.3,7.059,8.3,8.3H27.7C27.7,7.059,26.831,6.469,25.594,6.469Z"/>
  </g>
</svg>
