<svg xmlns="http://www.w3.org/2000/svg" width="228.999" height="85.819" viewBox="0 0 228.999 85.819">
  <g id="logo_small" transform="translate(0 0.003)">
    <path id="Path_736" data-name="Path 736" d="M1715.85-709.874h4.783v19.544h-4.783Z" transform="translate(-1681.065 710.205)" fill="#171717"/>
    <path id="Path_737" data-name="Path 737" d="M1746.239-709.874h4.838l5.413,9.13a34.954,34.954,0,0,1,1.641,3.334h.055s-.219-2.1-.219-3.334v-9.13h4.783v19.544h-4.811l-5.439-9.1a35.08,35.08,0,0,1-1.641-3.336h-.053s.219,2.1.219,3.336v9.1h-4.783Z" transform="translate(-1700.998 710.205)" fill="#171717"/>
    <path id="Path_738" data-name="Path 738" d="M1810.262-705.776h-5.922v-4.1h16.648v4.1h-5.923v15.443h-4.783Z" transform="translate(-1739.081 710.201)" fill="#171717"/>
    <path id="Path_739" data-name="Path 739" d="M1862.834-709.874h12.24v4.1h-7.462v3.553h5.96v4.1h-5.96v3.69h7.845v4.1h-12.635Z" transform="translate(-1777.431 710.205)" fill="#171717"/>
    <path id="Path_740" data-name="Path 740" d="M1912.682-709.862h6.806a10.1,10.1,0,0,1,3.8.466,5.681,5.681,0,0,1,3.608,5.686,5.948,5.948,0,0,1-2.923,5.33v.055a11.3,11.3,0,0,1,.739,1.185l3.8,6.834h-5.33l-3.471-6.588h-2.253v6.588h-4.783Zm6.862,8.856a2.238,2.238,0,0,0,1.813-.614,2.235,2.235,0,0,0,.675-1.791c0-1.477-.547-2.351-2.961-2.351h-1.613v4.756Z" transform="translate(-1810.098 710.193)" fill="#171717"/>
    <path id="Path_741" data-name="Path 741" d="M1975.43-694.43h-6.1l-1.184,4.1h-4.922l6.643-19.544h5.03l6.643,19.544h-4.92Zm-3.062-10.988s-.438,2.132-.79,3.356l-1.122,3.8h3.856l-1.094-3.8c-.356-1.23-.79-3.356-.79-3.356Z" transform="translate(-1843.246 710.205)" fill="#171717"/>
    <path id="Path_742" data-name="Path 742" d="M2031.981-710.823a10.183,10.183,0,0,1,7.326,2.764l-2.213,3.609a8.2,8.2,0,0,0-4.894-2,5.283,5.283,0,0,0-4.005,1.558,5.282,5.282,0,0,0-1.522,4.019,5.559,5.559,0,0,0,1.5,4.127,5.559,5.559,0,0,0,4.027,1.75,8.013,8.013,0,0,0,5.194-2.406l2.46,3.5a10.723,10.723,0,0,1-7.873,3.281,9.8,9.8,0,0,1-7.347-2.824,9.8,9.8,0,0,1-2.9-7.317,9.945,9.945,0,0,1,2.977-7.219,9.944,9.944,0,0,1,7.273-2.843Z" transform="translate(-1881.592 710.826)" fill="#171717"/>
    <path id="Path_743" data-name="Path 743" d="M2085.516-705.776h-5.932v-4.1h16.646v4.1h-5.922v15.443h-4.783Z" transform="translate(-1919.515 710.201)" fill="#171717"/>
    <path id="Path_744" data-name="Path 744" d="M2138.07-709.874h4.783v19.544h-4.783Z" transform="translate(-1956.148 710.205)" fill="#171717"/>
    <path id="Path_745" data-name="Path 745" d="M2161.33-709.874h5.194l3.443,11.124c.383,1.23.738,3.143.738,3.143h.056s.355-1.913.739-3.143l3.5-11.124h5.111l-6.888,19.544h-4.975Z" transform="translate(-1969.318 710.205)" fill="#171717"/>
    <path id="Path_746" data-name="Path 746" d="M2225.224-709.874h12.24v4.1H2230v3.553h5.96v4.1H2230v3.69h7.845v4.1h-12.634Z" transform="translate(-2011.205 710.205)" fill="#171717"/>
    <g id="Group_191" data-name="Group 191" transform="translate(2.451 33.135)">
      <path id="Path_747" data-name="Path 747" d="M1880.521-614.633h6.452l2.842,8.254c.436,1.258.987,3.016.987,3.016h.055s.547-1.759.987-3.016l2.843-8.254h6.451l.327,19.544h-4.785l-.085-12.082-3.714,8.508h-4.1l-3.711-8.508-.088,12.082h-4.811Z" transform="translate(-1789.514 614.633)" fill="#171717"/>
      <g id="Group_190" data-name="Group 190" transform="translate(0 0)">
        <path id="Path_748" data-name="Path 748" d="M1617.323-614.633h6.451l2.843,8.254c.436,1.258.987,3.016.987,3.016h.053s.547-1.759.987-3.016l2.843-8.254h6.451l.328,19.544h-4.785l-.085-12.082-3.713,8.508h-4.1l-3.709-8.508-.089,12.082h-4.811Z" transform="translate(-1616.972 614.633)" fill="#171717"/>
        <g id="Group_189" data-name="Group 189" transform="translate(25.942)">
          <path id="Path_749" data-name="Path 749" d="M1692.309-614.633h4.783v12.354a3,3,0,0,0,.956,2.369,3,3,0,0,0,2.434.774,3,3,0,0,0,2.434-.774,3,3,0,0,0,.956-2.369v-12.354h4.783v12.354c0,4.4-3.226,7.517-8.145,7.517-4.975,0-8.2-3.115-8.2-7.517Z" transform="translate(-1692.309 614.633)" fill="#171717"/>
          <path id="Path_750" data-name="Path 750" d="M1755.479-614.633h4.783v15.444h7.981v4.1h-12.765Z" transform="translate(-1733.73 614.633)" fill="#171717"/>
          <path id="Path_751" data-name="Path 751" d="M1798.953-610.532h-5.922v-4.1h16.646v4.1h-5.922v15.444h-4.783Z" transform="translate(-1758.333 614.633)" fill="#171717"/>
          <path id="Path_752" data-name="Path 752" d="M1851.519-614.633h4.783v19.544h-4.783Z" transform="translate(-1796.677 614.633)" fill="#171717"/>
          <path id="Path_753" data-name="Path 753" d="M1956.765-614.633H1969v4.1h-7.462v3.553h5.96v4.1h-5.96v3.69h7.845v4.1h-12.635Z" transform="translate(-1865.675 614.633)" fill="#171717"/>
          <path id="Path_754" data-name="Path 754" d="M2006.6-614.633h6.943c6.149,0,10.085,3.581,10.085,9.731s-3.936,9.813-10.085,9.813H2006.6Zm6.751,15.444c3.307,0,5.33-1.974,5.33-5.713a5.006,5.006,0,0,0-1.329-4.08,5.005,5.005,0,0,0-4-1.551h-1.974v11.343Z" transform="translate(-1898.348 614.633)" fill="#171717"/>
          <path id="Path_755" data-name="Path 755" d="M2068.979-614.633h4.784v19.544h-4.784Z" transform="translate(-1939.242 614.633)" fill="#171717"/>
          <path id="Path_756" data-name="Path 756" d="M2104.589-599.189h-6.1l-1.185,4.1h-4.919l6.643-19.544h5.031l6.643,19.544h-4.919Zm-3.062-10.988s-.438,2.132-.79,3.356l-1.121,3.8h3.847l-1.094-3.8c-.355-1.23-.789-3.356-.789-3.356Z" transform="translate(-1954.594 614.633)" fill="#171717"/>
        </g>
      </g>
    </g>
    <g id="Group_192" data-name="Group 192" transform="translate(119.842 65.6)">
      <path id="Path_757" data-name="Path 757" d="M1957.829-519.393h6.943c6.151,0,10.086,3.581,10.086,9.731s-3.937,9.813-10.086,9.813h-6.943Zm6.752,15.444c3.307,0,5.33-1.974,5.33-5.713a5.005,5.005,0,0,0-1.329-4.08,5,5,0,0,0-4-1.551h-1.974v11.343Z" transform="translate(-1957.829 519.732)" fill="#171717"/>
      <path id="Path_758" data-name="Path 758" d="M2020.225-519.393h12.239v4.1H2025v3.553h5.96v4.1H2025v3.69h7.845v4.1h-12.635Z" transform="translate(-1998.723 519.732)" fill="#171717"/>
      <path id="Path_759" data-name="Path 759" d="M2068.373-506.563a8.092,8.092,0,0,0,4.675,2.021c.987,0,2.051-.383,2.051-1.557,0-2.324-8.8-2.241-8.8-8.254,0-3.609,3.034-5.986,6.909-5.986a8.863,8.863,0,0,1,6.288,2.215l-2.023,3.909a7.459,7.459,0,0,0-4.318-1.721c-.987,0-2.077.438-2.077,1.53,0,2.46,8.8,2.024,8.8,8.2,0,3.253-2.488,6.069-6.888,6.069a10.09,10.09,0,0,1-7.135-2.787Z" transform="translate(-2028.638 520.352)" fill="#171717"/>
      <path id="Path_760" data-name="Path 760" d="M2119.26-519.393h4.784v19.544h-4.784Z" transform="translate(-2063.656 519.732)" fill="#171717"/>
      <path id="Path_761" data-name="Path 761" d="M2156.1-520.34a10.794,10.794,0,0,1,7.517,2.6l-2.3,3.581a7.783,7.783,0,0,0-4.756-1.8,5.214,5.214,0,0,0-4.172,1.42,5.215,5.215,0,0,0-1.594,4.108,5.551,5.551,0,0,0,1.505,4.188,5.549,5.549,0,0,0,4.1,1.734,6.686,6.686,0,0,0,3.962-1.421v-1.5h-2.763v-4.073h7v11.043h-3.99v-.547c0-.411.028-.819.028-.819h-.055a8.1,8.1,0,0,1-5.133,1.694,9.573,9.573,0,0,1-6.992-2.994,9.574,9.574,0,0,1-2.6-7.147,9.894,9.894,0,0,1,2.963-7.228,9.9,9.9,0,0,1,7.282-2.826Z" transform="translate(-2081.095 520.35)" fill="#171717"/>
      <path id="Path_762" data-name="Path 762" d="M2213.952-519.393h4.838l5.411,9.13a35.01,35.01,0,0,1,1.641,3.334h.053s-.219-2.1-.219-3.334v-9.13h4.783v19.544h-4.811l-5.441-9.1a35.317,35.317,0,0,1-1.64-3.334h-.056s.219,2.1.219,3.334v9.1h-4.784Z" transform="translate(-2125.724 519.732)" fill="#171717"/>
    </g>
    <rect id="Rectangle_61" data-name="Rectangle 61" width="38.369" height="13.777" transform="translate(190.63 3.215)" fill="#bffd00" opacity="0.9"/>
    <rect id="Rectangle_62" data-name="Rectangle 62" width="146.062" height="13.777" transform="translate(32.024 3.215)" fill="#bffd00" opacity="0.9"/>
    <rect id="Rectangle_63" data-name="Rectangle 63" width="89.393" height="13.777" transform="translate(0 36.183)" fill="#bffd00" opacity="0.9"/>
    <rect id="Rectangle_64" data-name="Rectangle 64" width="69.166" height="13.777" transform="translate(118.102 36.019)" fill="#bffd00" opacity="0.9"/>
    <rect id="Rectangle_65" data-name="Rectangle 65" width="87.363" height="13.777" transform="translate(139.966 68.823)" fill="#bffd00" opacity="0.9"/>
  </g>
</svg>
