<svg id="instagram_dark" xmlns="http://www.w3.org/2000/svg" width="41.861" height="44.758" viewBox="0 0 41.861 44.758">
  <path id="Path_896" data-name="Path 896" d="M640.735,979.977a47.633,47.633,0,0,1,.938-15.234c1.038-4.6,3-9.338,6.963-11.883a19.785,19.785,0,0,1,9.093-2.51,78.021,78.021,0,0,1,15.5.183c4.848.538,7.3,6.086,8.174,10.883a58.918,58.918,0,0,1-.033,21.283c-.654,3.517-1.786,7.217-4.6,9.422a14.6,14.6,0,0,1-7.812,2.5,48.8,48.8,0,0,1-16.13-1.261c-3.678-.914-7.468-2.435-9.664-5.525a16.087,16.087,0,0,1-2.435-7.841m9.57-21.206a10.685,10.685,0,0,0-2.121,4.245,43.405,43.405,0,0,0-1.768,15.643,8.358,8.358,0,0,0,7.589,9.2,41.944,41.944,0,0,0,16.819.5,5.2,5.2,0,0,0,3.108-1.355,5.247,5.247,0,0,0,.98-2.212,52.65,52.65,0,0,0,.77-22.7c-.528-2.848-1.922-6.216-4.806-6.486a59.321,59.321,0,0,0-13.749.353,11.128,11.128,0,0,0-6.823,2.794Z" transform="translate(-640.499 -950.05)" fill="#171717"/>
  <path id="Path_1041" data-name="Path 1041" d="M651.035,955.241a2.417,2.417,0,1,1-1.646-3.395,2.559,2.559,0,0,1,1.645,3.395Z" transform="translate(-618.823 -943.702)" fill="#171717"/>
  <path id="Path_1049" data-name="Path 1049" d="M654.344,952.884a10.02,10.02,0,0,1,1.479,19.457,10.2,10.2,0,0,1-11.55-4.57,9.986,9.986,0,0,1-.923-7.419,10.669,10.669,0,0,1,3.949-5.678,9.613,9.613,0,0,1,3.461-1.666,9.166,9.166,0,0,1,3.587-.117m-5.92,10.642a4.316,4.316,0,1,0,3.455-4.923,4.484,4.484,0,0,0-3.457,4.916Z" transform="translate(-631.345 -940.156)" fill="#171717"/>
</svg>
