<svg id="instagram_dark" xmlns="http://www.w3.org/2000/svg" width="43.131" height="46.116" viewBox="0 0 43.131 46.116">
  <path id="Path_896" data-name="Path 896" d="M640.742,980.885a49.079,49.079,0,0,1,.966-15.7c1.07-4.737,3.093-9.621,7.175-12.243a20.384,20.384,0,0,1,9.369-2.586,80.387,80.387,0,0,1,15.975.188c5,.554,7.518,6.271,8.422,11.213a60.705,60.705,0,0,1-.034,21.929c-.674,3.624-1.84,7.436-4.737,9.708a15.042,15.042,0,0,1-8.049,2.571,50.279,50.279,0,0,1-16.619-1.3c-3.79-.942-7.695-2.509-9.957-5.692a16.575,16.575,0,0,1-2.509-8.079m9.861-21.85a11.009,11.009,0,0,0-2.185,4.374A44.722,44.722,0,0,0,646.6,979.54a8.612,8.612,0,0,0,7.819,9.484,43.216,43.216,0,0,0,17.329.516,5.352,5.352,0,0,0,3.2-1.4,5.406,5.406,0,0,0,1.01-2.279,54.247,54.247,0,0,0,.793-23.387c-.544-2.935-1.98-6.4-4.952-6.683a61.125,61.125,0,0,0-14.167.364,11.466,11.466,0,0,0-7.03,2.878Z" transform="translate(-640.499 -950.05)" fill="#171717"/>
  <path id="Path_1041" data-name="Path 1041" d="M651.174,955.346a2.49,2.49,0,1,1-1.7-3.5,2.637,2.637,0,0,1,1.7,3.5Z" transform="translate(-617.986 -943.456)" fill="#171717"/>
  <path id="Path_1049" data-name="Path 1049" d="M654.688,952.887a10.324,10.324,0,0,1,1.524,20.047,10.513,10.513,0,0,1-11.9-4.709,10.288,10.288,0,0,1-.951-7.644,10.993,10.993,0,0,1,4.069-5.85,9.9,9.9,0,0,1,3.566-1.716,9.445,9.445,0,0,1,3.7-.121m-6.1,10.964a4.447,4.447,0,1,0,3.56-5.073,4.62,4.62,0,0,0-3.562,5.065Z" transform="translate(-630.991 -939.773)" fill="#171717"/>
</svg>
