<svg xmlns="http://www.w3.org/2000/svg" width="47.644" height="45.412" viewBox="0 0 47.644 45.412">
  <g id="Icon_feather-linkedin" data-name="Icon feather-linkedin" transform="translate(1.5 1.5)">
    <path id="Path_158" data-name="Path 158" d="M28.393,12A13.393,13.393,0,0,1,41.786,25.393V41.019H32.858V25.393a4.464,4.464,0,1,0-8.929,0V41.019H15V25.393A13.393,13.393,0,0,1,28.393,12Z" transform="translate(2.858 1.393)" fill="none" stroke="#000" stroke-linecap="round" stroke-linejoin="round" stroke-width="3"/>
    <path id="Path_159" data-name="Path 159" d="M3,13.5h8.929V40.286H3Z" transform="translate(-3 2.125)" fill="none" stroke="#000" stroke-linecap="round" stroke-linejoin="round" stroke-width="3"/>
    <path id="Path_160" data-name="Path 160" d="M11.929,7.464A4.464,4.464,0,1,1,7.464,3,4.464,4.464,0,0,1,11.929,7.464Z" transform="translate(-3 -3)" fill="none" stroke="#000" stroke-linecap="round" stroke-linejoin="round" stroke-width="3"/>
  </g>
</svg>
