<svg xmlns="http://www.w3.org/2000/svg" width="51.088" height="37.276" viewBox="0 0 51.088 37.276">
  <path id="Path_895" data-name="Path 895" d="M685.533,958.158c-3.579-3.649-4.195-9.266-3.884-14.37a17.736,17.736,0,0,1,3.023-10c3.543-4.521,9.983-5.342,15.717-5.442a133.3,133.3,0,0,1,19.283,1.055c4.845.618,10.409,2.072,12.328,6.555,1.241,2.9.529,6.242-.348,9.282a99.368,99.368,0,0,1-4.607,12.654,13.3,13.3,0,0,1-4.73,6.4,13.55,13.55,0,0,1-7.893,1.141,130.771,130.771,0,0,1-18.228-2.545c-3.863-.821-7.892-1.931-10.661-4.747m3.767-18.083a25.718,25.718,0,0,0-.889,7.649,8.706,8.706,0,0,0,3.5,6.593,12.193,12.193,0,0,0,4.11,1.484,126.024,126.024,0,0,0,20.055,2.825,4.978,4.978,0,0,0,2.759-.377,5.1,5.1,0,0,0,1.884-2.809l5.453-14.347a10.326,10.326,0,0,0-5.1,1.782,51.144,51.144,0,0,1-12.588,6c-4.521,1.13-9.772.618-13.146-2.605-2.108-2.014-3.409-4.967-6.043-6.216m30.053-3.306c.5-.729-.723-1.4-1.612-1.447a194.555,194.555,0,0,0-20.908-.017c-.838.045-1.953.376-1.9,1.215,2.511,1.562,3.746,4.779,6.44,6,2.743,1.247,5.915-.032,8.653-1.3l8.8-4.072a1.307,1.307,0,0,0,.543-.352Z" transform="translate(-681.579 -928.325)" fill="#171717"/>
</svg>
