<svg xmlns="http://www.w3.org/2000/svg" width="142.284" height="55.448" viewBox="0 0 142.284 55.448">
  <g id="thomas_more_logo" transform="translate(-0.77 -0.3)">
    <g id="Group_46" data-name="Group 46" transform="translate(0.975 16.742)">
      <g id="Group_45" data-name="Group 45" transform="translate(118.731 0.156)">
        <path id="Path_53" data-name="Path 53" d="M144.4,52.5h-5.9c-4.225,0-6.72-.059-8.676-1.32a9.519,9.519,0,0,1-4.049-7.668V33.428c0-4.225.059-6.72,1.32-8.676a8.641,8.641,0,0,1,7.678-3.9h9.693a1.136,1.136,0,0,0,1.174-1.086V18.356a1.123,1.123,0,0,0-1.174-1.086H134.44c-4.46.029-8.705,2.514-10.407,5.888-1.213,2.093-1.653,4.754-1.663,10.055V43.591h0v.626a.386.386,0,0,0,.049.137c.264,4.216,2.612,8.294,5.8,9.918,1.946,1.125,4.392,1.575,8.959,1.653a1.122,1.122,0,0,0,.176.01h7.023c.929,0,1.262-.381,1.262-.929V53.528C145.639,52.785,145.081,52.5,144.4,52.5Z" transform="translate(-122.37 -17.27)"/>
        <path id="Path_54" data-name="Path 54" d="M145,34.65h-6.8a1.01,1.01,0,0,0-1.1,1v1.379a1.044,1.044,0,0,0,1.037,1.037H145a1.031,1.031,0,0,0,1.037-1.037v-1.35A1.029,1.029,0,0,0,145,34.65Z" transform="translate(-122.693 -17.651)"/>
      </g>
      <path id="Path_55" data-name="Path 55" d="M40.789,17.11H38.451a1.044,1.044,0,0,0-.929.577l-16.07,32.6L5.342,17.687a1.044,1.044,0,0,0-.929-.577h-2.4A1.037,1.037,0,0,0,.98,18.147V55.021a1.037,1.037,0,0,0,1.037,1.037h1.5A1.037,1.037,0,0,0,4.55,55.021V24.084l15.522,31.4a1.044,1.044,0,0,0,.929.577h.841a1.044,1.044,0,0,0,.929-.577L38.246,24.094V55.021a1.037,1.037,0,0,0,1.037,1.037h1.5a1.037,1.037,0,0,0,1.037-1.037V18.147a1.011,1.011,0,0,0-1.027-1.037" transform="translate(-0.98 -17.11)"/>
      <path id="Path_56" data-name="Path 56" d="M114.783,37.671a12.915,12.915,0,0,0,2.553-8.128c-.01-4.5-2.475-8.989-5.878-10.71-2.132-1.232-4.842-1.673-10.309-1.673H92.727A1.031,1.031,0,0,0,91.69,18.2V55.071a1.031,1.031,0,0,0,1.037,1.037h1.5a1.037,1.037,0,0,0,1.037-1.037V20.593h5.888c4.245,0,6.739.059,8.705,1.33a9.415,9.415,0,0,1,3.912,7.7,9.612,9.612,0,0,1-2.836,7.14c-2.034,2.034-6.2,2.034-8.686,2.034H101.2a1.032,1.032,0,0,0-.841,1.633l10.818,15.249a1.043,1.043,0,0,0,.851.44h1.9a1.02,1.02,0,0,0,.919-.567,1.04,1.04,0,0,0-.078-1.076l-8.822-12.363c3.394-.264,6.289-1.086,8.842-4.441" transform="translate(-2.967 -17.111)"/>
    </g>
    <path id="Path_57" data-name="Path 57" d="M80.838,22.326c-3.658-3.58-8.617-5.076-13.9-5.546-1.1-.1-1.066.538-1.066.538v2.162c.039.636,1.066.636,1.066.636A15.879,15.879,0,0,1,83.127,36.4a16.193,16.193,0,1,1-32.385.049V36.4h0c-.039-.675-.342-.714-.831-.714H47.954c-.851-.01-.694.959-.694.959h.01a19.454,19.454,0,0,0,5.761,13.84,20.189,20.189,0,0,0,27.8,0A19.445,19.445,0,0,0,86.6,36.41,19.459,19.459,0,0,0,80.838,22.326Z" transform="translate(-1.018 -0.361)" fill="#9d9d9c"/>
    <g id="Group_57" data-name="Group 57" transform="translate(0.77 0.3)">
      <g id="Group_47" data-name="Group 47" transform="translate(18.378 0.01)">
        <path id="Path_58" data-name="Path 58" d="M25.422,11.131A4.7,4.7,0,0,1,20.757,6.3a4.663,4.663,0,1,1,9.321,0,4.642,4.642,0,0,1-4.656,4.832m0-10.671A5.713,5.713,0,0,0,19.71,6.309a5.714,5.714,0,1,0,11.424,0A5.719,5.719,0,0,0,25.422.46" transform="translate(-19.563 -0.313)"/>
        <path id="Path_59" data-name="Path 59" d="M25.419,12.3a5.863,5.863,0,0,1-5.859-6,5.86,5.86,0,1,1,11.718,0A5.869,5.869,0,0,1,25.419,12.3Zm0-11.7A5.565,5.565,0,0,0,19.863,6.3a5.557,5.557,0,1,0,11.111,0A5.571,5.571,0,0,0,25.419.6Zm0,10.671A4.841,4.841,0,0,1,20.607,6.3a4.815,4.815,0,1,1,9.624,0A4.794,4.794,0,0,1,25.419,11.274Zm0-9.644A4.49,4.49,0,0,0,20.91,6.306a4.543,4.543,0,0,0,4.509,4.675,4.5,4.5,0,0,0,4.509-4.675A4.5,4.5,0,0,0,25.419,1.63Z" transform="translate(-19.56 -0.31)"/>
      </g>
      <g id="Group_48" data-name="Group 48" transform="translate(0 0.186)">
        <path id="Path_60" data-name="Path 60" d="M7.317.65H1.243A.309.309,0,0,0,.93.963v.391a.317.317,0,0,0,.313.323H3.757v9.977a.309.309,0,0,0,.313.313H4.49a.309.309,0,0,0,.313-.313V1.667H7.317a.317.317,0,0,0,.313-.323V.953a.313.313,0,0,0-.313-.3" transform="translate(-0.774 -0.494)"/>
        <path id="Path_61" data-name="Path 61" d="M4.487,12.11H4.066A.47.47,0,0,1,3.6,11.64V1.82H1.239A.47.47,0,0,1,.77,1.351V.959A.47.47,0,0,1,1.239.49H7.313a.47.47,0,0,1,.469.469v.391a.47.47,0,0,1-.469.469H4.956v9.83A.468.468,0,0,1,4.487,12.11ZM1.239.793a.171.171,0,0,0-.166.166v.391a.165.165,0,0,0,.166.166H3.9V11.65a.171.171,0,0,0,.166.166h.421a.165.165,0,0,0,.166-.166V1.517h2.66a.171.171,0,0,0,.166-.166V.959A.165.165,0,0,0,7.313.793Z" transform="translate(-0.77 -0.49)"/>
      </g>
      <g id="Group_49" data-name="Group 49" transform="translate(8.646 0.186)">
        <path id="Path_62" data-name="Path 62" d="M16.744.65h-.421a.309.309,0,0,0-.313.313v4.8H10.827V.963A.309.309,0,0,0,10.514.65h-.421A.309.309,0,0,0,9.78.963V11.654a.309.309,0,0,0,.313.313h.421a.309.309,0,0,0,.313-.313V6.783H16.01v4.871a.315.315,0,0,0,.313.313h.421a.309.309,0,0,0,.313-.313V.963A.315.315,0,0,0,16.744.65" transform="translate(-9.614 -0.494)"/>
        <path id="Path_63" data-name="Path 63" d="M16.74,12.11H16.32a.47.47,0,0,1-.469-.469V6.926H10.97V11.65a.47.47,0,0,1-.469.469h-.421a.47.47,0,0,1-.469-.469V.959A.47.47,0,0,1,10.079.49H10.5a.47.47,0,0,1,.469.469V5.605H15.85V.959A.47.47,0,0,1,16.32.49h.421a.47.47,0,0,1,.469.469V11.65A.474.474,0,0,1,16.74,12.11ZM10.657,6.623h5.487V11.64a.165.165,0,0,0,.166.166h.421a.165.165,0,0,0,.166-.166V.959a.165.165,0,0,0-.166-.166H16.31a.171.171,0,0,0-.166.166V5.909H10.657V.959A.165.165,0,0,0,10.49.793H10.07A.171.171,0,0,0,9.9.959V11.65a.171.171,0,0,0,.166.166h.421a.165.165,0,0,0,.166-.166Z" transform="translate(-9.61 -0.49)"/>
      </g>
      <g id="Group_52" data-name="Group 52" transform="translate(57.374)">
        <g id="Group_50" data-name="Group 50" transform="translate(0.146 0.166)">
          <path id="Path_64" data-name="Path 64" d="M63.531,5.713l-.117-.029c-1.506-.391-2.572-.782-2.563-2.191a1.976,1.976,0,0,1,2.064-2.015c1.105,0,1.751.6,1.986,1.839a.324.324,0,0,0,.313.264h.421a.312.312,0,0,0,.235-.108.322.322,0,0,0,.078-.245A2.953,2.953,0,0,0,62.954.47a3.273,3.273,0,0,0-2.328.929,2.957,2.957,0,0,0-.812,2.171c0,2.259,2,2.758,2.954,3l.068.02c.988.274,2.347.646,2.347,2.318a2.28,2.28,0,0,1-4.558,0,.316.316,0,0,0-.313-.274h-.421a.318.318,0,0,0-.235.1.3.3,0,0,0-.078.235,3.332,3.332,0,0,0,6.661-.127,3.148,3.148,0,0,0-2.709-3.13" transform="translate(-59.578 -0.47)"/>
        </g>
        <g id="Group_51" data-name="Group 51">
          <path id="Path_65" data-name="Path 65" d="M62.9,12.3A3.45,3.45,0,0,1,59.43,8.976a.441.441,0,0,1,.127-.352.459.459,0,0,1,.342-.147h.421a.458.458,0,0,1,.46.411,2.128,2.128,0,0,0,4.255.01c0-1.555-1.242-1.9-2.24-2.171l-.078-.02c-1-.254-3.071-.782-3.071-3.149A3.1,3.1,0,0,1,60.5,1.278,3.429,3.429,0,0,1,62.932.3a3.094,3.094,0,0,1,3.149,2.9.479.479,0,0,1-.108.372.49.49,0,0,1-.352.156H65.2a.472.472,0,0,1-.46-.381c-.215-1.164-.792-1.712-1.829-1.712A1.822,1.822,0,0,0,61,3.489c-.01,1.3.968,1.653,2.445,2.044l.117.029a3.289,3.289,0,0,1,2.817,3.277A3.48,3.48,0,0,1,62.9,12.3ZM59.89,8.78a.139.139,0,0,0-.117.059.134.134,0,0,0-.039.117,3.18,3.18,0,0,0,6.358-.108A3.007,3.007,0,0,0,63.5,5.865l-.117-.029c-1.516-.4-2.68-.822-2.67-2.338a2.115,2.115,0,0,1,2.21-2.162,2.048,2.048,0,0,1,2.132,1.956.158.158,0,0,0,.156.137h.421a.172.172,0,0,0,.127-.059.18.18,0,0,0,.039-.127A2.8,2.8,0,0,0,62.951.613a3.118,3.118,0,0,0-2.22.88,2.771,2.771,0,0,0-.773,2.064c0,2.142,1.849,2.612,2.836,2.866l.078.02c.978.264,2.465.675,2.465,2.465a2.426,2.426,0,0,1-4.851.02.169.169,0,0,0-.166-.147Z" transform="translate(-59.429 -0.3)"/>
        </g>
      </g>
      <g id="Group_53" data-name="Group 53" transform="translate(32.228 0.186)">
        <path id="Path_66" data-name="Path 66" d="M45.138.65h-.665a.315.315,0,0,0-.284.176l-4.509,9.4L35.162.826A.3.3,0,0,0,34.878.65H34.2a.309.309,0,0,0-.313.313V11.654a.309.309,0,0,0,.313.313h.421a.309.309,0,0,0,.313-.313V2.782l4.333,9.008a.315.315,0,0,0,.284.176H39.8a.315.315,0,0,0,.284-.176l4.313-9.008v8.871a.315.315,0,0,0,.313.313h.421a.309.309,0,0,0,.313-.313V.963a.3.3,0,0,0-.3-.313" transform="translate(-33.724 -0.494)"/>
        <path id="Path_67" data-name="Path 67" d="M45.134,12.11h-.421a.47.47,0,0,1-.469-.469v-8.2l-4.03,8.4a.462.462,0,0,1-.421.264h-.245a.462.462,0,0,1-.421-.264L35.08,3.434V11.64a.47.47,0,0,1-.469.469h-.421a.47.47,0,0,1-.469-.469V.959A.47.47,0,0,1,34.189.49h.675a.452.452,0,0,1,.421.264L39.667,9.87,44.039.754A.48.48,0,0,1,44.46.49h.665a.47.47,0,0,1,.469.469V11.65A.453.453,0,0,1,45.134,12.11Zm-.587-10V11.65a.165.165,0,0,0,.166.166h.421a.165.165,0,0,0,.166-.166V.959a.165.165,0,0,0-.166-.166h-.665a.171.171,0,0,0-.147.1l-4.646,9.683L35.021.891a.16.16,0,0,0-.147-.1H34.2a.171.171,0,0,0-.166.166V11.65a.171.171,0,0,0,.166.166h.421a.165.165,0,0,0,.166-.166V2.1l4.617,9.6a.161.161,0,0,0,.147.088h.245a.171.171,0,0,0,.147-.1Z" transform="translate(-33.72 -0.49)"/>
      </g>
      <g id="Group_56" data-name="Group 56" transform="translate(45.783 0.186)">
        <g id="Group_54" data-name="Group 54" transform="translate(0.145 0.156)">
          <path id="Path_68" data-name="Path 68" d="M50.7,7.223l2.064-5.018,2.074,5.018ZM53.334.846a.32.32,0,0,0-.293-.2h-.548a.32.32,0,0,0-.293.2l-4.45,10.691a.311.311,0,0,0,.293.43h.45a.32.32,0,0,0,.293-.2L50.263,8.24h5.018l1.477,3.531a.32.32,0,0,0,.293.2h.45a.311.311,0,0,0,.293-.43Z" transform="translate(-47.726 -0.65)"/>
        </g>
        <g id="Group_55" data-name="Group 55">
          <path id="Path_69" data-name="Path 69" d="M57.5,12.11h-.45a.458.458,0,0,1-.43-.284L55.18,8.383H50.368L48.93,11.826a.458.458,0,0,1-.43.284h-.45a.478.478,0,0,1-.391-.205.442.442,0,0,1-.039-.44L52.069.774A.449.449,0,0,1,52.5.49h.548a.463.463,0,0,1,.43.284l4.45,10.691a.47.47,0,0,1-.039.44A.479.479,0,0,1,57.5,12.11ZM50.152,8.08h5.223l1.516,3.629a.171.171,0,0,0,.147.1h.45a.161.161,0,0,0,.147-.225L53.194.9a.174.174,0,0,0-.156-.1H52.49a.151.151,0,0,0-.147.1l-4.46,10.691a.153.153,0,0,0,.02.156.148.148,0,0,0,.137.068h.45a.151.151,0,0,0,.147-.1Zm4.9-.714H50.465l2.289-5.575Zm-4.128-.3H54.6l-1.849-4.47Z" transform="translate(-47.578 -0.49)"/>
        </g>
      </g>
    </g>
  </g>
</svg>
