<svg xmlns="http://www.w3.org/2000/svg" width="57.63" height="55.948" viewBox="0 0 57.63 55.948">
  <g id="Group_336" data-name="Group 336" transform="translate(0.373 0.353)">
    <path id="Path_607" data-name="Path 607" d="M2972.113,606.517a32.1,32.1,0,0,1,15.849-3.221c8.874.35,17.086,4.144,21.4,14.23a29.326,29.326,0,0,1-1.45,26.7c-3.881,6.133-11.154,9.962-17.893,12.179-15.711,5.169-35.256-8-33.727-27.575C2956.969,620.226,2961.471,611.964,2972.113,606.517Zm5.374,2.916a24.511,24.511,0,0,0,3.542-1.7c-1.455-1.754-3.06-3.157-5.958-1.56.716,1.311,1.7,2,2.43,3.255Zm-7.561,2.168a10.926,10.926,0,0,0,3.013-.916c-.257-1.249.313-2.143.055-3.39-2.916.622-2.577,2.643-3.067,4.306Zm3.829-.962a7.56,7.56,0,0,0,2.763-.819c-.819-1.049-1.443-2.558-2.562-2.912a16.808,16.808,0,0,1-.187,3.731Zm-6.781,1.3c.7-.232,1.187.043,1.884-.188-.151-.754,1-1.965.188-2.326-.4.963-2.547,1.168-2.076,2.515Zm14.93-4.822a7.947,7.947,0,0,0,2.671-2.466c-1.539.452-3.521-.529-4.75.767a9.143,9.143,0,0,1,2.083,1.7Zm-16.918,6.174c-.068-.324.188-.646-.435-.388-1.251,1.738-3.5,3.044-3.5,5.323.6-.153.788.663,1.507.243,1.037-1.622.981-3.726,2.432-5.176Zm-.929,5.425c1.189.043,2.428-.04,3.635-.043.064-2.045.813-3.8.734-5.909-3.377-.493-3.716,3.5-4.375,5.954Zm18.817-10.58c1.556.734,2.327,3.3,3.867,4.074a55.277,55.277,0,0,0,3.982-4.112c-2.26-2.844-5.764-3.713-7.854.039Zm8.19-1.3c.725-.356.67-1.049,1.068-1.548-1.341-.16-3.429-1.051-4.408-.494a11.578,11.578,0,0,1,3.338,2.044Zm-22.308,11.689a17.243,17.243,0,0,0,4.411-.913,30.244,30.244,0,0,1-.477-5.428,8.116,8.116,0,0,0-3.1.674c-.207,1.919-.678,3.722-.829,5.67Zm5.137-1.2c1.883-.171,3.989-.863,5.963-1.251a24.81,24.81,0,0,0-2.609-5.14c-1.034-.092-2.556.957-3.579.866.026,1.825.139,3.682.233,5.526Zm8.009-8.805c-1.192.691-2.351,1.4-3.686,2.029.916,1.612,1.739,3.428,2.608,5.14,2.057-.654,2.826-1.868,4.559-2.656a13.729,13.729,0,0,0-3.476-4.511Zm10.372-.754a45.659,45.659,0,0,1,5.027,6.984,16.836,16.836,0,0,0,3.6-6.487c-2.26-2.057-5.242-2.449-8.183-2.918.74,1.179-.71,1.428-.446,2.417Zm-34.193,19.224c1.019.437,1.853,1.3,3.2.976.081-2.978.9-5.637,1.08-8.574C2958.8,618.274,2958.7,624.3,2958.08,626.987Zm5.534-7.257c-.35,2.927-1.345,5.579-.983,8.817a18.033,18.033,0,0,0,5.864-.089,63.485,63.485,0,0,1-1-8.868c-1.387.264-2.517-.047-3.873.141Zm27.49-10.665c-.808,1.729-2.94,2.886-4.123,4.451,1.746,1.851,2.925,5.02,4.539,7.176a30.383,30.383,0,0,0,5.191-4.594c-1.6-2.968-3.125-6.1-5.592-7.031Zm-22.449,10.623a33.28,33.28,0,0,0,1,8.866,53.005,53.005,0,0,0,6.057-1.006c-.608-2.874-1.919-6.048-2.409-8.87-1.645.593-3.02.5-4.639,1.011Zm8.125,7.723a65.04,65.04,0,0,0,7.369-2.654c-1.164-2.739-2.505-5.067-3.671-7.806a63.645,63.645,0,0,0-6.35,1.7c1.074,2.989,1.544,5.735,2.656,8.76Zm4.427-10.749c1.477,2.011,2.43,5.247,3.816,7.466a39.354,39.354,0,0,0,5.383-2.7c-1.507-2.729-2.671-6.242-4.882-7.325a24.024,24.024,0,0,1-4.313,2.558Zm16.815-.8c1.449,2.072,2.579,4.9,4.108,6.781a16.139,16.139,0,0,0,4.421-7.941,25.59,25.59,0,0,0-4.883-5.918,17.526,17.526,0,0,1-3.637,7.075Zm-40.151,20.478a7.768,7.768,0,0,0,4.7,1.219,20.7,20.7,0,0,1-1.2-7.947c-1.052-1.13-2.621-1.07-3.826-1.848a32.1,32.1,0,0,0,.329,8.572Zm6.2,1.466c2.625-.5,4.709.271,7.561-.765a48.8,48.8,0,0,1-2.652-7.37,35.762,35.762,0,0,1-6.54-.2,18.288,18.288,0,0,0,1.63,8.333Zm27.838-16.138a38.976,38.976,0,0,1,3.283,6.835,28.452,28.452,0,0,0,5.92-4.884c-1.181-2.236-2.449-4.27-3.526-6.741a51.045,51.045,0,0,1-5.676,4.786ZM2972.7,636.9a24.715,24.715,0,0,0,6.689-1.541,36.776,36.776,0,0,1-3.283-6.837c-2.3.831-4.1.492-6.3,1.1Zm12.714-11.8c.865,2.654,2.072,4.521,3.041,6.933a25.428,25.428,0,0,0,5.867-2.9c-1.271-2.176-1.91-5.826-3.767-6.645a31.2,31.2,0,0,1-5.14,2.6Zm-4.959,10.118c2.347-.9,4.223-1.258,7.127-2.556a44.541,44.541,0,0,0-3.042-6.933c-2.609,1.243-4.85,1.626-7.371,2.654a28.951,28.951,0,0,0,3.292,6.832Zm21.823-11.49c.835,1.637,1.289,4.166,2.364,5.236a71.7,71.7,0,0,0,5.1-6.242c-.754-1.763-1.091-5.385-2.75-6.206a11.848,11.848,0,0,1-4.7,7.2Zm-41.123,20.864a11.635,11.635,0,0,0,4.555.153,48.449,48.449,0,0,1-2.752-6.2c-1.983.413-3.264-.812-5.085-.781a61.315,61.315,0,0,0,3.283,6.824Zm6.056.4a23.514,23.514,0,0,0,8.288-1.053,53.142,53.142,0,0,1-3.477-5.916c-2.943,1.077-5.022.158-7.8.859a43.886,43.886,0,0,0,3,6.093Zm28.465-15.257q1.013,2.546,2.026,5.086a44.412,44.412,0,0,0,5.677-4.788c-.959-1.883-.867-3.319-1.784-5.187-2.129,1.548-3.654,3.366-5.915,4.872Zm-19.113,14.07a25.738,25.738,0,0,0,6.932-1.637c-1.318-1.77-2.418-4.029-3.722-5.82-2.387,1.032-4.31.993-6.593,1.782,1.123,1.889,2.234,3.831,3.383,5.656Zm12.374-10.548q1.161,2.906,2.317,5.816c1.767-1.249,3.735-2.409,5.578-3.624l-2.027-5.086a65.043,65.043,0,0,0-5.867,2.88Zm15.607-3.125a42.571,42.571,0,0,1,1.3,6.781c1.884-1.068,2.671-2.6,4.414-3.726.218-2.462.6-6.956-.663-8.721a18.874,18.874,0,0,1-5.039,5.652Zm-20.079,11.644a16.95,16.95,0,0,0,5.819-2.315l-2.317-5.818c-2.32,1.183-5.446,1.771-7.029,2.8,1.257,1.586,2.255,3.806,3.536,5.33Zm-13.728,9.96a25.7,25.7,0,0,1-3.956-5.722,22.62,22.62,0,0,0-4.9-.3c2.511,2.716,5.412,7.031,8.858,6.01Zm32.4-20.2a20.455,20.455,0,0,1-5.044,4.257c.636,2.081,1.038,4.063,1.589,6.107,1.821-1.358,3.686-2.7,5.383-4.11-1-2.01-.209-5.3-1.923-6.267Zm-30.891,20.444c2.79-1.185,5.858-.546,8.145-2.117a32.8,32.8,0,0,1-4.161-4.805c-2.763.814-6.089.461-8.189,1.3,1.48,1.693,2.7,3.985,4.211,5.613Zm19.156-11.838c1.038,2.053,1.049,3.665,1.978,5.671a48.641,48.641,0,0,0,5.192-3.189c-.424-1.789-.4-4.455-1.833-6.012-1.583,1.248-3.542,2.335-5.332,3.516Zm-9.85,9.819c2.132-.446,4.381-1.16,6.593-1.78a51.129,51.129,0,0,0-4.015-5.142,54.827,54.827,0,0,1-6.592,1.782,48.117,48.117,0,0,0,4.017,5.127Zm7.561-2.168,3.15-1.253a34.929,34.929,0,0,0-1.491-5.865,27.789,27.789,0,0,0-5.429,1.884,59.92,59.92,0,0,0,3.767,5.221Zm20.271-12.563c-.816,1.188-2.374,2.059-3.2,3.24.91,1.669-.094,3.579,1.008,4.654.529-2.481,3.374-6.06,2.206-7.909Zm-36.951,18.647c-.314-1-1.867-1.548-2.275-.78.849.031,1.434.711,2.281.76Zm27.247-10.565a44.453,44.453,0,0,1,1.2,6.542c4.023-2.486,5.894-5.9,4.427-10.749-2.054,1.3-3.711,2.8-5.632,4.186Zm-13.149,12.808c-1.618-1.84-3.509-3.047-5.085-5-2.878.62-5.632.953-8.433,1.392,3.024,4.65,8.393,3.836,13.516,3.595Zm6.99-9.242a38.751,38.751,0,0,0,2.072,5.915,28.094,28.094,0,0,0,4.171-2.223c-.229-2.172-.531-4.377-.959-6.638-2.011.854-3.179,2.1-5.288,2.927Zm-5.44,8.907c1.318-.706,3.517-1.032,4.269-1.981-1.507-.844-2.385-3.174-3.579-4.754a51.809,51.809,0,0,1-6.106,1.59,25.1,25.1,0,0,0,5.427,5.134Zm6.062-2.413c.376-1.578-.866-3.854-1.494-5.865l-2.908,1.158c1.346,1.836,2.193,4.861,4.4,4.7Z" transform="translate(-2955.707 -602.76)" fill="#171717" stroke="#171717" stroke-width="0.7" fill-rule="evenodd"/>
    <path id="Path_608" data-name="Path 608" d="M2982.4,657.5a27.479,27.479,0,0,1-16.8-5.943,26.559,26.559,0,0,1-10.308-23.275c.534-6.877,3.767-16.4,16.095-22.71h0a32.837,32.837,0,0,1,16.093-3.273c10.394.411,17.939,5.434,21.827,14.528a29.654,29.654,0,0,1-1.486,27.151c-4.236,6.692-12.213,10.427-18.16,12.384A23.248,23.248,0,0,1,2982.4,657.5Zm-12.8-4.441a25.265,25.265,0,0,0,17.457,2.985l-1.013.047c-.482.023-.97.051-1.456.079-4.724.269-9.606.55-12.49-3.91l-.215-.332-.273.117-.236-.254c-.1-.1-.188-.211-.284-.318l-.718.213-.113.032a1.824,1.824,0,0,1,.235,0,2.292,2.292,0,0,1,1.9,1.479l.213.68-.711-.041a3.3,3.3,0,0,1-1.334-.443,2.424,2.424,0,0,0-.941-.337Zm11.535-3,.188.235a21.981,21.981,0,0,0,2.676,2.673,26.506,26.506,0,0,1,2.388,2.31l.673.766a21.224,21.224,0,0,0,2.29-.614c5.769-1.9,13.487-5.5,17.583-11.889l-.6-.588a2.187,2.187,0,0,1-.565-.93,9.455,9.455,0,0,1-5.144,7.722l-.591.365-.149-.68a24.7,24.7,0,0,1-.377-2.524,16.877,16.877,0,0,0-.792-3.935l.065.348c.4,2.1.712,4.285.964,6.679l.032.3-.252.164a28.752,28.752,0,0,1-4.244,2.26l-.456.2-.188-.46c-.188-.471-.4-.942-.588-1.431a4.323,4.323,0,0,1,.068,1.936l-.083.35-.358.026a2.575,2.575,0,0,1-1.13-.158l-.318.4a6,6,0,0,1-2.743,1.447,11.709,11.709,0,0,0-1.679.663l-.294.156-.256-.215c-.4-.337-.812-.661-1.219-.985a19.071,19.071,0,0,1-4.29-4.261l-.359-.527-.247.053-.309.064-.189-.252c-.053-.072-.107-.141-.16-.211l-.326.226a6.482,6.482,0,0,1-1.9.869c.853-.147,1.717-.307,2.582-.494Zm-7.763,2.3c2.618,3.319,6.781,3.08,11.159,2.825l.4-.023c-.518-.516-1.057-.995-1.584-1.464a24.713,24.713,0,0,1-2.6-2.556c-2.026.424-4.014.716-5.939,1Zm9.654-1.884a20.166,20.166,0,0,0,3.621,3.4c.332.262.663.526.99.795a15.991,15.991,0,0,1,1.528-.578,9.6,9.6,0,0,0,1.884-.776,10.692,10.692,0,0,1-2.073-2.788c-.294-.494-.6-1-.908-1.448-.608.162-1.239.354-1.852.542a30.427,30.427,0,0,1-3.18.859Zm-16.465.574a27.542,27.542,0,0,0,2.449,1.658l.2-.377a1.132,1.132,0,0,1,.59-.524,4.764,4.764,0,0,1-3.227-.748Zm23.417-2.684c.243.377.473.795.695,1.194.753,1.334,1.452,2.6,2.534,2.774a10.014,10.014,0,0,0-.917-3.483c-.153-.4-.313-.817-.453-1.226Zm3.611-1.727a38.523,38.523,0,0,0,1.758,4.971,27.654,27.654,0,0,0,3.391-1.819c-.219-2.016-.484-3.88-.806-5.675a18.654,18.654,0,0,0-1.872,1.117,17.245,17.245,0,0,1-2.473,1.416Zm-26.338-.377a24.292,24.292,0,0,0,3.339,4.613l.047.051c-.543-.687-1.053-1.433-1.552-2.162-.589-.855-1.192-1.742-1.832-2.5Zm1.115-.188c.533.678,1.038,1.414,1.529,2.132a29.049,29.049,0,0,0,1.974,2.663,15.6,15.6,0,0,1,3.607-.754,11.1,11.1,0,0,0,3.543-.84,18.349,18.349,0,0,1-2.246-2.628c-.4-.526-.8-1.068-1.222-1.556a23.315,23.315,0,0,1-4.009.565,19.747,19.747,0,0,0-3.18.422Zm-5.894-.394.51.589c1.884,2.192,4,4.669,6.28,4.6a27.088,27.088,0,0,1-3.323-4.95,17.867,17.867,0,0,0-3.471-.235Zm25.994,2.29.189.26a18.635,18.635,0,0,1,1.09,1.7,15.485,15.485,0,0,0-.909-1.486l-.377-.512,3.991-1.59.156.506.078.239c-.055-.205-.107-.407-.153-.61l-.1-.412.394-.156a14.705,14.705,0,0,0,2.691-1.484,16.75,16.75,0,0,1,2.584-1.458l.527-.226-.047-.13.3-.216c.714-.52,1.409-1.068,2.082-1.6,1.119-.88,2.275-1.789,3.569-2.625l.548-.354.028.089.162-.232a9.84,9.84,0,0,1,1.671-1.7,8.8,8.8,0,0,0,1.53-1.542l.118-.173c-.173.17-.345.343-.518.518a11.27,11.27,0,0,1-2.491,2.051l-.541.307.134.266-.3.249c-1.358,1.13-2.842,2.228-4.278,3.289l-1.13.836-.58.433-.188-.7c-.217-.8-.409-1.594-.6-2.387-.292-1.2-.6-2.448-.981-3.7l-.122-.394.376-.188a14.3,14.3,0,0,0,3.873-3.111c.324-.333.65-.667.989-1-.351.32-.687.646-1.019.966a19.135,19.135,0,0,1-3.767,3.034l-.494.286-2.385-5.99.33-.22a28.657,28.657,0,0,0,3.2-2.611,34.325,34.325,0,0,1,2.7-2.26l.473-.347.258.526a12.644,12.644,0,0,1,.9,2.637,11.411,11.411,0,0,0,.882,2.547l.188.356-.312.25c-.209.168-.415.341-.614.516l.306.173c1.224.7,1.388,2.26,1.546,3.767a9.97,9.97,0,0,0,.443,2.392l-.02-.313a32.865,32.865,0,0,0-1.012-5.539c-.092-.388-.188-.776-.275-1.16l-.07-.305.245-.188.27-.215-.215-.213a9.069,9.069,0,0,1-1.641-3.3,17.331,17.331,0,0,0-.816-2.061l-.188-.36.318-.251.045-.038-.268-.332a25.713,25.713,0,0,1-2.358-3.811c-.39-.719-.791-1.456-1.209-2.141.7,1.544,1.477,2.948,2.234,4.308.377.684.753,1.367,1.13,2.072l.188.352-.307.254c-.624.52-1.192,1.085-1.742,1.633a15.858,15.858,0,0,1-4.273,3.313l-.49.243-.188-.512a38.711,38.711,0,0,0-3.242-6.749l-.25-.407.4-.262a30.921,30.921,0,0,0,4.054-3.326c.516-.477,1.032-.953,1.569-1.42l.377-.332-.024-.034-.189-.277.189-.279c.237-.354.482-.7.727-1.055a14.215,14.215,0,0,0,2.8-5.587l-.188.48a14.594,14.594,0,0,1-3.323,5.675l-.477.452-.3-.586a21.762,21.762,0,0,0-2.3-3.539,34.834,34.834,0,0,1,2.261,3.842l.491.916-.5.514a29.282,29.282,0,0,1-5.027,4.406l-.387.252-.275-.377a27.694,27.694,0,0,1-1.979-3.251,19.561,19.561,0,0,0-2.527-3.882l-.284-.3.25-.331a13.689,13.689,0,0,1,1.884-1.893,9.159,9.159,0,0,0,2.112-2.313c-.882,1-1.861,1.951-2.814,2.88l-.942.91-.312-.156a6.3,6.3,0,0,1-2.1-2.185,5.534,5.534,0,0,0-1.737-1.872,13.269,13.269,0,0,1,3.142,4.238l.2.448-.447.2-.1.047.261.126c1.825.895,2.956,3.219,4.05,5.462.337.693.686,1.409,1.045,2.063l.235.43-1.142.638a34.151,34.151,0,0,1-4.733,2.334l-.377.143-.215-.343c-.1-.16-.188-.326-.294-.5.1.222.188.445.292.671l.189.452-.451.188c-1.277.546-2.55,1.045-3.812,1.507a28.252,28.252,0,0,0,3.793-1.426l.367-.173.239.326c.045.062.091.126.134.188q-.064-.188-.124-.377l-.145-.441.432-.17a30.623,30.623,0,0,0,5.062-2.569l.22-.136.236.105c1.405.622,2.149,2.509,2.867,4.332a19.085,19.085,0,0,0,1.13,2.513l.226.377-.361.262a25.539,25.539,0,0,1-5.982,2.959l-.448.167-.189-.444c-.247-.608-.51-1.192-.78-1.757.256.689.524,1.379.808,2l.208.452-.454.2a40.406,40.406,0,0,1-4.57,1.695c-.866.277-1.685.537-2.582.88l-.345.132-.224-.294-.034-.047.089.149-.565.205a25.309,25.309,0,0,1-6.82,1.571l-.36.026L2969.2,630.3a34.207,34.207,0,0,0,1.318,3.477c.36.857.733,1.742,1.035,2.592l.164.46-.459.166a10.012,10.012,0,0,1-2.8.576,8.9,8.9,0,0,0,2.845-.529l.388-.141.208.356.04.068.537-.188a21.757,21.757,0,0,1,2.908-.733,16.97,16.97,0,0,0,3.649-1.034l.361-.156.231.318c.049.068.1.136.149.205l.352-.228a16.564,16.564,0,0,1,3.541-1.46,26.092,26.092,0,0,0,3.532-1.366l.48-.245,2.673,6.711-.364.215c-.2.115-.509.294-.9.5a5.193,5.193,0,0,1,1.1-.2h.124l-.1-.2.254-.168-2.688-6.751.356-.215c1.379-.83,4.05-2.1,5.92-2.927l.467-.207,2.366,5.939-.335.22-.245.16.237.258a8.7,8.7,0,0,1,1.681,4.709c.084.548.163,1.066.271,1.518l.077.328-.275.188a48.767,48.767,0,0,1-5.244,3.221l-.458.239-.217-.467c-.134-.29-.249-.565-.352-.846a7.7,7.7,0,0,1,.175,1.352v.343l-3.846,1.529-.22-.341a19.64,19.64,0,0,0-1.37-1.842c.22.3.439.6.655.9l.974,1.341-.68.188c-.565.158-1.13.324-1.7.49-1.045.3-2.112.614-3.166.887a30.376,30.376,0,0,0,3.025-.816c.734-.224,1.492-.456,2.221-.638Zm-10.674-3.37a21.674,21.674,0,0,0,2.073,2.637c.459.524.93,1.063,1.38,1.648,1.479-.326,3.035-.776,4.545-1.215l1.034-.3-.146-.2a45.36,45.36,0,0,0-3.186-4.078,25.7,25.7,0,0,1-3.979,1.107c-.562.13-1.146.256-1.73.4Zm-1.906-.625.208.232c.516.576,1,1.222,1.475,1.848a17.069,17.069,0,0,0,2.164,2.53c-.2-.235-.4-.467-.6-.7a20.042,20.042,0,0,1-2.525-3.351l-.308-.543.6-.171c.526-.151,1.043-.277,1.549-.392-.8.139-1.571.241-2.321.333l-.307.036-.083-.128-.565.207a15.754,15.754,0,0,1-2.479.688,15.778,15.778,0,0,0,2.9-.5Zm23.875-1.013a18.856,18.856,0,0,1,.735,3.826c.065.565.133,1.13.233,1.723a7.966,7.966,0,0,0,3.786-9.154c-1.036.708-2,1.464-2.933,2.2-.594.467-1.2.944-1.818,1.409Zm-38.187,3.178a26.11,26.11,0,0,0,1.944,2.225c-.435-.479-.859-.97-1.273-1.451Zm23.968-3.85a19.073,19.073,0,0,0,1.848,2.537c.47.577.955,1.17,1.41,1.837l2.449-.972a16.47,16.47,0,0,0-.812-3.215c-.188-.588-.376-1.192-.538-1.782a18.757,18.757,0,0,0-3.029,1.064c-.442.179-.894.36-1.327.533Zm-20.72,2.482a11.161,11.161,0,0,1,1.571.239l.218.051.105.2.16.3.482-.188a8.413,8.413,0,0,1,1.818-.459q-.618.017-1.228.024c-.407.006-.81.013-1.217.025h-.32l-.137-.29c-.345-.721-.724-1.4-1.093-2.047a21.088,21.088,0,0,1-1.925-4.123l-.16-.5.508-.128a10.106,10.106,0,0,1,1.884-.283,10.786,10.786,0,0,0-1.806.177l-.377.072-.164-.345a18.563,18.563,0,0,1-1.678-8.538v-.584l.239.038-.036-.33a19.682,19.682,0,0,1,.517-6.2c.176-.889.354-1.808.466-2.731l.045-.377.376-.051c.134-.019.264-.032.394-.043l-.52-.019.156-.6c.089-.337.171-.7.256-1.081a13.653,13.653,0,0,1,1.081-3.379,7.971,7.971,0,0,0-.97,2.26,9.514,9.514,0,0,1-.979,2.347l-.063.1-.1.06a1.359,1.359,0,0,1-.145.075l.215.068-.022.377a37.182,37.182,0,0,1-.534,4.036,31.907,31.907,0,0,0-.545,4.521l-.009.377-.368.087a3,3,0,0,1-.646.083,3.665,3.665,0,0,1,.987.754l.151.162-.022.22a20.117,20.117,0,0,0,1.179,7.753l.175.565.057-.011.145.4a47.74,47.74,0,0,0,2.724,6.142l.333.62-.7.1c-.172.026-.323.054-.492.073Zm-4.293-.079h.68q-.342-.062-.667-.147l-.13-.032Zm31.006-4.9a16.467,16.467,0,0,1,.914,2.7,17.716,17.716,0,0,0,.671,2.114,48.547,48.547,0,0,0,4.4-2.724c-.079-.4-.145-.821-.213-1.266a9.282,9.282,0,0,0-1.152-3.842c-1,.753-2.126,1.456-3.218,2.136-.482.294-.954.588-1.406.887Zm-33.291.7a25.249,25.249,0,0,0,1.873,3.562c-.377-.8-.784-1.552-1.182-2.279-.233-.418-.479-.842-.7-1.281Zm6.124-1.774a21.812,21.812,0,0,0,1.672,3.428c.328.58.667,1.179.983,1.82l.914-.017a20.316,20.316,0,0,0,6.273-.784,33.643,33.643,0,0,1-2.028-3.46c-.287-.535-.583-1.085-.88-1.612a12.322,12.322,0,0,1-4.127.463,13.958,13.958,0,0,0-2.822.162Zm-3.356,4.929a10.919,10.919,0,0,0,3.438.17,49.623,49.623,0,0,1-2.306-5.253,6.218,6.218,0,0,1-2.75-.43,9.111,9.111,0,0,0-1.3-.354,26.456,26.456,0,0,0,1.7,3.522c.4.744.836,1.51,1.213,2.345Zm22.745-1.723.231.243c.377.4.753.83,1.13,1.275a12.366,12.366,0,0,1-.7-1.192l-.255-.494.13-.049c-.089.013-.179.023-.266.03l-.254.023-.166-.188q-.219-.26-.43-.542c.077.107.153.213.23.316l.376.51-.587.239a21.944,21.944,0,0,1-2.225.766,17.993,17.993,0,0,0,2.48-.8Zm25.212-8.022.337.535c.9,1.418-.065,3.449-1,5.411a14.766,14.766,0,0,0-1.13,2.846l-.153.721a29.072,29.072,0,0,0,1.394-26.21,23.452,23.452,0,0,0-5.185-7.709,30.514,30.514,0,0,1,1.961,2.637c.408.594.832,1.206,1.259,1.769l.153.188-.07.239c-.094.326-.188.654-.3.981l.477.235c1.349.669,1.9,2.7,2.379,4.5A15.749,15.749,0,0,0,3009.7,622l.107.251-.157.224q-.242.348-.5.693l.345.484c1.382,1.934.974,6.564.753,9.041l-.021.239-.2.13a8.355,8.355,0,0,0-1.077.84Zm-36.307,4.616c.13.243.258.484.387.723a27.048,27.048,0,0,0,2.328,3.846c-.784-1.251-1.548-2.565-2.291-3.841Zm.763-.642.51.876c.774,1.33,1.571,2.7,2.385,3.991a25.358,25.358,0,0,0,5.914-1.339c-.544-.791-1.059-1.65-1.558-2.486s-1.024-1.718-1.569-2.5a19.254,19.254,0,0,1-3.475.942c-.75.152-1.466.3-2.22.518Zm32.835.119a5.747,5.747,0,0,1,.352,2.375c0,.305,0,.565.021.81.23-.574.51-1.17.785-1.752a9.9,9.9,0,0,0,1.26-3.711c-.336.349-.711.673-1.081.991a10.912,10.912,0,0,0-1.353,1.286Zm-25.088-1.931c.475.667.916,1.4,1.343,2.121a23.608,23.608,0,0,0,1.669,2.545,17.061,17.061,0,0,0,5-2.01L2987.2,633.8a31.428,31.428,0,0,1-3.183,1.188,21.969,21.969,0,0,0-2.863,1.072Zm17.015-.565c.339,1.149.614,2.275.881,3.371.134.554.27,1.108.413,1.663l.546-.4c1.318-.979,2.688-1.989,3.956-3.014a10.508,10.508,0,0,1-.514-2.677,5.019,5.019,0,0,0-.772-2.786c-.249.247-.49.5-.732.753a15.949,15.949,0,0,1-3.781,3.1Zm6.969,2.475.135.444a12.864,12.864,0,0,1,.339,1.386,3.578,3.578,0,0,0-.368-1.637Zm-9.823-1.82-.889.565c-1.059.669-2.149,1.358-3.163,2.062.377-.241.753-.48,1.145-.719.972-.609,1.99-1.238,2.894-1.9Zm-6.267-3.223,1.93,4.848c.942-.65,1.95-1.281,2.922-1.895.612-.386,1.222-.774,1.821-1.164l-1.695-4.242c-2.021.915-3.886,1.832-5,2.462Zm-28.1,4.605a3.656,3.656,0,0,0,1.409-.009l.174-.038-.417.038a7.092,7.092,0,0,1-1.187.017Zm-3.513-.8a4.79,4.79,0,0,1,.753.06c-.376-.175-.732-.364-1.055-.546l-.205-.119-.036-.235a32.1,32.1,0,0,1-.328-8.709l.1-.778.377.245.07-.294c.113-.486.209-1.1.314-1.759.354-2.241.8-5.033,2.366-6a2.321,2.321,0,0,1,1.067-.345c-.115-.072-.141-.077-.188-.066l-.612.154v-.631a3.89,3.89,0,0,1,.231-1.318,25.039,25.039,0,0,0-4.012,11.968,26,26,0,0,0,.693,8.395h.392Zm5-7.218a17.257,17.257,0,0,0,1.422,7.219,16.761,16.761,0,0,1,2.784-.13,11.967,11.967,0,0,0,3.85-.392c-.258-.68-.554-1.385-.84-2.072a25.9,25.9,0,0,1-1.585-4.49,37.411,37.411,0,0,1-5.655-.129Zm-4.613,5.993a7.343,7.343,0,0,0,3.578,1.066,20.28,20.28,0,0,1-1.051-7.3,4.734,4.734,0,0,0-1.848-.889,10.9,10.9,0,0,1-1.055-.377,32.575,32.575,0,0,0,.368,7.506Zm12.142-6.063,2.552,6.4a24.218,24.218,0,0,0,5.64-1.283,37.1,37.1,0,0,1-2.856-5.958,14.786,14.786,0,0,1-3.149.535,17.6,17.6,0,0,0-2.206.311Zm34.626.341c.066.284.134.565.2.853a41.027,41.027,0,0,1,.964,4.884,12.829,12.829,0,0,0,1.613-1.458,13.125,13.125,0,0,1,1.911-1.7,21.731,21.731,0,0,0-.226-7.415,19.9,19.9,0,0,1-4.489,4.839Zm-27.3-1.641a28.862,28.862,0,0,0,2.826,5.967c.787-.29,1.507-.522,2.281-.766a41.209,41.209,0,0,0,4.02-1.45c-.305-.71-.586-1.473-.859-2.213a20.979,20.979,0,0,0-1.7-3.848,33.188,33.188,0,0,1-3.921,1.418C2979.083,627.521,2978.216,627.8,2977.312,628.148Zm18.477,1.241,1.667,4.183a19.944,19.944,0,0,0,3.08-2.59c.552-.533,1.119-1.083,1.745-1.607a13.255,13.255,0,0,1-.785-2.392,13.925,13.925,0,0,0-.584-1.9c-.753.591-1.454,1.219-2.132,1.831a31.847,31.847,0,0,1-3.006,2.468Zm-19.878-2.008.166.465a34.2,34.2,0,0,0,1.445,3.453c-.459-1.055-.883-2.164-1.3-3.257l-.173-.45.447-.188c.213-.087.422-.168.629-.247l-.693.205-.439.128-.158-.43q-.135-.363-.258-.725.072.3.134.6l.092.431-.42.137a16.232,16.232,0,0,1-3.666.672,19.966,19.966,0,0,0-2.437.347l-.45.1-.128-.443a30.288,30.288,0,0,1-1-8.084l-.04-1.277.356-.113a13.761,13.761,0,0,1,2.151-.456l-.584.073c-.422.051-.82.1-1.232.173l-.625.113.047-.633a31.445,31.445,0,0,1,.452-3.2c.143-.806.29-1.641.376-2.475l.032-.281.26-.113a8.536,8.536,0,0,1,3.279-.716l.441-.019.066.433v-.3l-.012-.548.548.049a4.549,4.549,0,0,0,1.575-.4,4.89,4.89,0,0,1,2.009-.461l.253.023.13.219c.149.256.3.51.454.765l.207.345c-.188-.343-.361-.678-.544-1l-.262-.461.477-.226c1.091-.516,2.085-1.1,3.047-1.659l.919-.535.268.254.036.032.166-.3a7.165,7.165,0,0,1,.642-.976,9.526,9.526,0,0,1-.941.618l-.346.2-.268-.3a8.444,8.444,0,0,0-.824-.791c.24.247.47.507.694.778l.424.51-.614.256a11.156,11.156,0,0,0-1.29.671,9.226,9.226,0,0,1-2.308,1.04l-.335.092.015.021-.587.25a8.139,8.139,0,0,1-2.966.859l-.541-.013v-.019l-.057.028a11.141,11.141,0,0,1-3.04.942l-.887.175.034-.111-.241.081a2.406,2.406,0,0,1-.354.089l.235.034.015.409a14.373,14.373,0,0,1-.376,3.368,15.859,15.859,0,0,0-.358,2.577l-.015.475h-.224l.04.377c.1.929.16,1.852.22,2.746a35.505,35.505,0,0,0,.774,6.059l.117.488-.49.107a12.854,12.854,0,0,1-2.387.292c.881,0,1.793-.021,2.748-.053l.433-.013v.058l.264-.073a15.693,15.693,0,0,1,2.893-.458,12.667,12.667,0,0,0,3.372-.635Zm9.625-2.511a33.87,33.87,0,0,0,1.607,3.671c.365.753.742,1.524,1.092,2.349a25.089,25.089,0,0,0,4.95-2.418c-.357-.693-.668-1.482-.972-2.251a8.134,8.134,0,0,0-2.132-3.678,31.722,31.722,0,0,1-4.557,2.326Zm22.88-.716c-1.036,1.334-2.144,2.622-3.2,3.824a16.919,16.919,0,0,0,3.2-3.825Zm-45.822,3.432a17.411,17.411,0,0,0,4.82-.019,38.235,38.235,0,0,1-.684-5.724c-.049-.719-.1-1.458-.168-2.2a11.617,11.617,0,0,1-1.663.024,11.71,11.71,0,0,0-1.333,0c-.115.823-.273,1.629-.428,2.413a19.62,19.62,0,0,0-.556,5.5Zm39.8-4.238c.256.565.478,1.2.695,1.821a12.205,12.205,0,0,0,1.076,2.515,70.11,70.11,0,0,0,4.521-5.545,18.327,18.327,0,0,1-.548-1.827,10.2,10.2,0,0,0-1.338-3.433,12.522,12.522,0,0,1-4.419,6.466Zm-33.73-3.8.015.527a30.729,30.729,0,0,0,.836,7.4c.725-.136,1.42-.205,2.095-.273a16.71,16.71,0,0,0,3.033-.5c-.275-1.177-.659-2.416-1.03-3.622-.439-1.42-.891-2.882-1.177-4.272a15.489,15.489,0,0,1-2.025.4,15.317,15.317,0,0,0-1.747.329Zm23.415,1.757a39.718,39.718,0,0,1,2.884,5.993,15.961,15.961,0,0,0,3.535-2.876c.475-.473.966-.961,1.507-1.43-.309-.576-.624-1.141-.942-1.706-.72-1.3-1.464-2.637-2.142-4.106q-.531.478-1.049.961a33.913,33.913,0,0,1-3.8,3.161Zm-33.929,4.9c.158.083.313.168.461.252a3.1,3.1,0,0,0,1.7.565,35.311,35.311,0,0,1,.544-4.247c.188-1.143.4-2.322.492-3.522a1.474,1.474,0,0,0-1.036.188c-1.185.735-1.6,3.39-1.912,5.323-.091.511-.167,1-.261,1.439Zm16.112-7.781c.438,1.3.78,2.554,1.109,3.777.358,1.318.729,2.7,1.223,4.1a64.733,64.733,0,0,0,6.417-2.311c-.523-1.191-1.084-2.326-1.629-3.428-.565-1.13-1.13-2.3-1.676-3.531-.655.171-1.3.314-1.925.456a30.211,30.211,0,0,0-3.523.936Zm7.178-2.085a27.4,27.4,0,0,1,1.835,3.646,32.892,32.892,0,0,0,1.465,3.025,35.525,35.525,0,0,0,4.22-2.121l.3-.166c-.288-.548-.565-1.121-.836-1.676a11.941,11.941,0,0,0-3.336-4.869,23.865,23.865,0,0,1-3.649,2.157Zm-7.723,3.579c.152.58.326,1.17.5,1.759-.17-.574-.339-1.162-.528-1.754Zm32.258-3.8a15.685,15.685,0,0,1-3.038,5.415,10.531,10.531,0,0,0,3.021-5.411Zm-7.843-.772c.582.876,1.117,1.863,1.637,2.825a29.988,29.988,0,0,0,1.935,3.238,15.875,15.875,0,0,0,3.821-7.108c-.39-.524-.77-1.072-1.13-1.607a18.966,18.966,0,0,0-2.869-3.537,16.473,16.473,0,0,1-2.855,5.428q-.285.378-.548.766Zm-17.107,2.194c.4.859.808,1.7,1.211,2.505-.407-.859-.8-1.727-1.236-2.5Zm6.116-4.553a22.81,22.81,0,0,1,2.384,3.767c.52.942,1.057,1.921,1.632,2.755a30.314,30.314,0,0,0,4.468-4l-.151-.283c-1.333-2.49-2.707-5.059-4.637-6.027a10.858,10.858,0,0,1-2.2,2.368,15.881,15.881,0,0,0-1.512,1.427Zm-21.878,5.7a8.913,8.913,0,0,0,1.215-.032l-.671.017Zm8-1.373.019.06-.407.175a8.944,8.944,0,0,1-1.953.582,9.965,9.965,0,0,0,1.738-.432l.55-.188.042.237.222-.085a28.619,28.619,0,0,1,4.1-1.143c.732-.164,1.488-.333,2.247-.544l-.356.07c-.713.139-1.465.326-2.194.5a26.675,26.675,0,0,1-3.82.753Zm-9.067.4c.52,0,1.062-.013,1.586-.026.32,0,.641-.017.959-.023a19.842,19.842,0,0,1,.351-2.26,15.205,15.205,0,0,0,.363-2.708c-1.949-.045-2.543,1.859-3.142,4.511-.056.175-.093.347-.131.514Zm-3.1-.452a1.858,1.858,0,0,1,.377.2c.149.1.188.126.256.108a9.167,9.167,0,0,0,.8-2c.12-.388.245-.782.4-1.168a5.651,5.651,0,0,0-1.85,2.867Zm8.465-4.581c-.094.766-.228,1.52-.356,2.251-.143.812-.292,1.644-.376,2.49.224-.03.44-.057.655-.083a10.951,10.951,0,0,0,2.614-.54,11.642,11.642,0,0,1-.266-2.986c0-.554,0-1.081-.048-1.629a7.363,7.363,0,0,0-2.25.505Zm4.122-.942c.03,1.092.084,2.208.139,3.291.019.405.04.812.059,1.217a31.557,31.557,0,0,0,3.163-.669c.553-.138,1.13-.277,1.684-.4a21.33,21.33,0,0,0-1.921-3.75l-.316-.527a6.164,6.164,0,0,0-1.341.4,7.538,7.538,0,0,1-1.489.458Zm6.01,3.223c.053.139.1.283.149.427l.17.514.143-.04.355-.177.462-.232q-.229.09-.478.17l-.4.126-.188-.377a3.144,3.144,0,0,1-.238-.4Zm-6.879-.377c0,.25.016.5.038.753l-.014-.264c-.026-.143-.026-.3-.045-.471Zm12.1-1.55a10.339,10.339,0,0,0-1.613,1.038c-.263.188-.529.39-.817.58a16.124,16.124,0,0,0,2.25-1.473Zm-6.5-2.8c.52.955,1.019,1.972,1.507,2.959.222.454.443.908.668,1.358a8.792,8.792,0,0,0,2.134-1.268,12.352,12.352,0,0,1,1.527-1.009,13.05,13.05,0,0,0-2.9-3.675l-.281.164c-.859.512-1.726,1.019-2.667,1.492Zm13.832-3.2c.471.622.96,1.224,1.435,1.81a30.915,30.915,0,0,1,3.253,4.558,15,15,0,0,0,2.627-4.852q.13-.335.264-.671a13.66,13.66,0,0,0-6.9-2.449,1.793,1.793,0,0,1-.436,1.081c-.208.26-.282.383-.264.543Zm-27.86,4.762a.6.6,0,0,1,.354.108.665.665,0,0,1,.24.639.7.7,0,0,0,0,.124l.021.1a3.014,3.014,0,0,1,1.149-.84l-.125-.349c-.43-1.19.582-1.8,1.251-2.193.367-.219.753-.445.846-.68l.047-.109a30.559,30.559,0,0,0-4.058,3.242,1,1,0,0,1,.258-.032Zm4.766-1.624c-.024.064-.051.124-.074.188a2.054,2.054,0,0,0-.219.776l.024.117.091-.3c.049-.243.105-.5.162-.766Zm13.912-2.725a7.816,7.816,0,0,1,1.684,1.934,7.156,7.156,0,0,0,1.44,1.7l.408-.4c1.026-1,2.085-2.031,3-3.095a4.9,4.9,0,0,0-3.861-1.963,3.592,3.592,0,0,0-2.679,1.838Zm-15.892,3.377h.275a3.239,3.239,0,0,0,.445,0,4.014,4.014,0,0,1,.267-.825c-.125.081-.253.156-.377.231a2.7,2.7,0,0,0-.793.593.771.771,0,0,0,.171.011Zm4.907-3.428c-1.507.5-1.695,1.494-1.919,2.727-.021.107-.04.217-.062.324a9.07,9.07,0,0,0,1.81-.565,5.679,5.679,0,0,1,.081-1.48,6.334,6.334,0,0,0,.067-.995Zm18.459.593.26.1a6.358,6.358,0,0,1,2.449,1.787l-.332-.411c-.5-.62-1.024-1.258-1.525-1.929l-.057-.073-.024-.09a1.573,1.573,0,0,1,.376-1.443c.208-.284.305-.418.213-.657-.042.085-.081.188-.122.283a2,2,0,0,1-.995,1.206l-.249.121-.232-.149c-.158-.1-.316-.209-.469-.32a8.585,8.585,0,0,1,.776.861l.247.311-.252.307Zm-16.525-.676a18.33,18.33,0,0,1-.175,2.26,8.5,8.5,0,0,0,1.44-.484c-.109-.162-.216-.328-.322-.49a8.378,8.378,0,0,0-.961-1.275Zm-1.051,1.256a7.016,7.016,0,0,0-.081.742c0-.239.041-.486.06-.731Zm2.792-.552.03.045c.219.335.422.653.645.942l.241.309-.083-.145a8.093,8.093,0,0,0-.857-1.139Zm-7.2.332.23.1a.874.874,0,0,1,.565.753,3.657,3.657,0,0,1,1.094-2q-1,.564-1.9,1.16Zm6.736-2.486a11.544,11.544,0,0,0,.93,1.179,12.253,12.253,0,0,1,1.012,1.29,9.146,9.146,0,0,0,1.729-.836c.254-.147.514-.3.8-.443a3.389,3.389,0,0,0-4.494-1.179Zm-2.4.328.1.484c.009.053.021.105.028.156a3.938,3.938,0,0,0-.031-.4l-.051-.522q-.539.247-1.078.522h0c.17-.053.353-.1.546-.143Zm.326-.4.411.13a2.465,2.465,0,0,1,.823.46c-.1-.151-.188-.311-.288-.48l-.228-.414c-.256.109-.5.211-.746.317Zm6.994-.917a9.586,9.586,0,0,1,1.3,1.094,7.734,7.734,0,0,0,1.471-1.217c-.276,0-.555-.019-.826-.034a4.243,4.243,0,0,0-1.956.168Zm9.066-.121c.2.147.4.3.6.452.241.188.471.362.7.524a1.529,1.529,0,0,0,.3-.541c0-.015.014-.032.019-.047-.26-.057-.533-.124-.813-.188s-.547-.128-.829-.188Zm1.974-.587,1.507.243a30.592,30.592,0,0,1,4.064.84,26.491,26.491,0,0,0-9.352-1.978,34.115,34.115,0,0,0-10.616,1.209,3.823,3.823,0,0,1,1.8.429l.333-.35a3.751,3.751,0,0,1,3.22-.821,5.337,5.337,0,0,0,1.747-.077l1.3-.377-.753,1.13a8.166,8.166,0,0,1-.646.844,3.935,3.935,0,0,1,1.8-.612,4.654,4.654,0,0,1,2.437.52,3.424,3.424,0,0,0-.962-.4l-1.236-.281,1.1-.627a4.929,4.929,0,0,1,3.324.139c.337.083.662.164.958.222Z" transform="translate(-2955.202 -602.25)" fill="#171717" stroke="#171717" stroke-width="0.7"/>
  </g>
</svg>
