<svg xmlns="http://www.w3.org/2000/svg" width="46.822" height="45.46" viewBox="0 0 46.822 45.46">
  <g id="Group_336" data-name="Group 336" transform="translate(0.369 0.352)">
    <path id="Path_607" data-name="Path 607" d="M2969.093,605.9a26,26,0,0,1,12.84-2.609c7.189.284,13.843,3.357,17.334,11.529a23.76,23.76,0,0,1-1.175,21.627c-3.145,4.969-9.036,8.071-14.5,9.867-12.729,4.187-28.562-6.484-27.324-22.34C2956.824,617,2960.471,610.31,2969.093,605.9Zm4.354,2.362a19.866,19.866,0,0,0,2.869-1.373c-1.178-1.421-2.479-2.557-4.827-1.263.58,1.062,1.374,1.619,1.969,2.637Zm-6.125,1.756a8.853,8.853,0,0,0,2.441-.742c-.209-1.012.254-1.736.045-2.747-2.363.5-2.088,2.141-2.485,3.488Zm3.1-.78a6.123,6.123,0,0,0,2.239-.664c-.664-.85-1.169-2.072-2.075-2.359a13.636,13.636,0,0,1-.151,3.023Zm-5.494,1.05c.569-.188.961.035,1.526-.153-.122-.61.812-1.592.153-1.885-.323.78-2.063.946-1.682,2.037Zm12.1-3.907a6.437,6.437,0,0,0,2.164-2c-1.246.366-2.852-.429-3.848.621a7.415,7.415,0,0,1,1.688,1.377Zm-13.707,5c-.055-.262.153-.523-.352-.314-1.014,1.408-2.835,2.466-2.833,4.312.487-.124.638.537,1.221.2.84-1.314.795-3.018,1.97-4.193Zm-.752,4.395c.963.035,1.968-.032,2.945-.035.052-1.657.659-3.078.595-4.787-2.736-.4-3.01,2.837-3.544,4.823Zm15.245-8.571c1.26.6,1.885,2.677,3.133,3.3a44.815,44.815,0,0,0,3.226-3.331c-1.831-2.3-4.67-3.008-6.364.032Zm6.635-1.05c.587-.288.543-.85.865-1.254-1.087-.13-2.778-.851-3.571-.4a9.381,9.381,0,0,1,2.7,1.656Zm-18.073,9.47a13.968,13.968,0,0,0,3.574-.74,24.48,24.48,0,0,1-.386-4.4,6.577,6.577,0,0,0-2.513.546c-.167,1.555-.549,3.015-.671,4.593Zm4.162-.974c1.526-.139,3.232-.7,4.831-1.013a20.106,20.106,0,0,0-2.114-4.164c-.838-.075-2.07.775-2.9.7.021,1.479.113,2.983.189,4.477Zm6.488-7.134c-.966.56-1.9,1.132-2.986,1.643.742,1.306,1.409,2.777,2.113,4.164,1.667-.529,2.289-1.514,3.693-2.151a11.122,11.122,0,0,0-2.816-3.655Zm8.4-.61a36.99,36.99,0,0,1,4.073,5.658,13.637,13.637,0,0,0,2.913-5.255c-1.831-1.667-4.247-1.984-6.629-2.364.6.955-.575,1.157-.362,1.958Zm-27.7,15.574c.825.354,1.5,1.05,2.594.791.065-2.413.732-4.567.875-6.946C2958.3,615.422,2958.228,620.306,2957.724,622.481Zm4.483-5.88c-.284,2.371-1.09,4.52-.8,7.143a14.608,14.608,0,0,0,4.751-.072,51.377,51.377,0,0,1-.813-7.184c-1.124.214-2.039-.038-3.138.114Zm22.271-8.64c-.655,1.4-2.382,2.338-3.34,3.606,1.415,1.5,2.37,4.067,3.677,5.814a24.606,24.606,0,0,0,4.206-3.722c-1.3-2.4-2.531-4.939-4.531-5.7Zm-18.187,8.606a26.963,26.963,0,0,0,.812,7.183,42.962,42.962,0,0,0,4.907-.815c-.493-2.329-1.555-4.9-1.951-7.186-1.332.481-2.446.4-3.759.819Zm6.583,6.257a52.7,52.7,0,0,0,5.97-2.15c-.943-2.219-2.03-4.105-2.975-6.324a51.59,51.59,0,0,0-5.144,1.373c.87,2.422,1.251,4.647,2.152,7.1Zm3.586-8.709c1.2,1.63,1.969,4.251,3.092,6.049a31.9,31.9,0,0,0,4.361-2.19c-1.221-2.211-2.164-5.057-3.955-5.935a19.464,19.464,0,0,1-3.494,2.072Zm13.623-.645c1.174,1.678,2.089,3.968,3.328,5.493a13.075,13.075,0,0,0,3.582-6.433,20.734,20.734,0,0,0-3.956-4.794,14.2,14.2,0,0,1-2.946,5.732Zm-32.529,16.59a6.293,6.293,0,0,0,3.8.987,16.768,16.768,0,0,1-.97-6.438c-.852-.916-2.123-.867-3.1-1.5a26,26,0,0,0,.267,6.945Zm5.022,1.187c2.127-.406,3.815.22,6.125-.62a39.53,39.53,0,0,1-2.149-5.971,28.981,28.981,0,0,1-5.3-.163,14.817,14.817,0,0,0,1.321,6.751Zm22.553-13.075a31.566,31.566,0,0,1,2.659,5.538,23.047,23.047,0,0,0,4.8-3.957c-.957-1.812-1.984-3.46-2.856-5.462a41.376,41.376,0,0,1-4.6,3.877Zm-15.566,12.339a20.024,20.024,0,0,0,5.419-1.248,29.788,29.788,0,0,1-2.659-5.539c-1.862.673-3.318.4-5.1.894Zm10.3-9.562c.7,2.15,1.679,3.662,2.463,5.617a20.6,20.6,0,0,0,4.753-2.347c-1.03-1.763-1.547-4.72-3.052-5.384a25.272,25.272,0,0,1-4.164,2.11Zm-4.018,8.2c1.9-.727,3.421-1.02,5.774-2.071a36.087,36.087,0,0,0-2.465-5.617c-2.114,1.007-3.929,1.317-5.971,2.15a23.455,23.455,0,0,0,2.667,5.535Zm17.68-9.308c.677,1.326,1.044,3.375,1.915,4.242a58.13,58.13,0,0,0,4.131-5.057c-.611-1.428-.884-4.363-2.228-5.028a9.6,9.6,0,0,1-3.806,5.833Zm-33.316,16.9a9.429,9.429,0,0,0,3.69.124,39.235,39.235,0,0,1-2.229-5.027c-1.607.334-2.645-.658-4.12-.633a49.686,49.686,0,0,0,2.659,5.528Zm4.906.322a19.05,19.05,0,0,0,6.715-.853,43.042,43.042,0,0,1-2.817-4.793c-2.384.873-4.069.128-6.322.7a35.528,35.528,0,0,0,2.431,4.936Zm23.062-12.36q.82,2.063,1.642,4.12a35.988,35.988,0,0,0,4.6-3.879c-.777-1.526-.7-2.689-1.445-4.2-1.725,1.254-2.961,2.727-4.792,3.947Zm-15.485,11.4a20.853,20.853,0,0,0,5.616-1.326c-1.068-1.434-1.959-3.264-3.016-4.715-1.934.836-3.491.8-5.341,1.444.909,1.53,1.81,3.1,2.74,4.582Zm10.024-8.545q.941,2.355,1.877,4.712c1.432-1.012,3.026-1.952,4.519-2.936l-1.642-4.12a52.685,52.685,0,0,0-4.753,2.333Zm12.645-2.532a34.5,34.5,0,0,1,1.051,5.493c1.526-.865,2.164-2.106,3.576-3.018.177-1.995.483-5.635-.537-7.065a15.292,15.292,0,0,1-4.083,4.579ZM2979.1,634.46a13.734,13.734,0,0,0,4.714-1.876l-1.877-4.714c-1.88.958-4.412,1.434-5.695,2.268,1.019,1.285,1.827,3.084,2.865,4.318Zm-11.122,8.069a20.824,20.824,0,0,1-3.2-4.636,18.324,18.324,0,0,0-3.968-.244c2.034,2.2,4.385,5.7,7.177,4.869Zm26.247-16.366a16.563,16.563,0,0,1-4.086,3.449c.515,1.686.841,3.292,1.288,4.947,1.476-1.1,2.986-2.187,4.361-3.33-.811-1.629-.17-4.29-1.558-5.077ZM2969.2,642.726c2.26-.96,4.746-.443,6.6-1.715a26.581,26.581,0,0,1-3.371-3.893c-2.239.659-4.933.374-6.635,1.05,1.2,1.372,2.191,3.229,3.412,4.547Zm15.52-9.591c.841,1.663.85,2.969,1.6,4.595a39.427,39.427,0,0,0,4.206-2.583c-.344-1.45-.325-3.609-1.485-4.871-1.282,1.011-2.869,1.892-4.319,2.849Zm-7.979,7.955c1.728-.362,3.549-.94,5.341-1.442a41.457,41.457,0,0,0-3.252-4.166,44.41,44.41,0,0,1-5.341,1.444,39.009,39.009,0,0,0,3.254,4.154Zm6.125-1.756,2.552-1.015a28.325,28.325,0,0,0-1.208-4.752,22.509,22.509,0,0,0-4.4,1.526,48.461,48.461,0,0,0,3.052,4.229Zm16.423-10.178c-.661.963-1.923,1.668-2.594,2.625.737,1.352-.076,2.9.817,3.771.429-2.01,2.733-4.909,1.787-6.408Zm-29.936,15.107c-.255-.809-1.512-1.254-1.844-.632.688.026,1.162.576,1.848.616Zm22.074-8.559a35.982,35.982,0,0,1,.974,5.3c3.26-2.014,4.775-4.779,3.586-8.709-1.664,1.057-3.006,2.266-4.563,3.392Zm-10.653,10.377c-1.311-1.491-2.843-2.469-4.12-4.05-2.332.5-4.563.772-6.832,1.128,2.45,3.767,6.8,3.108,10.95,2.912Zm5.663-7.488a31.385,31.385,0,0,0,1.678,4.792,22.764,22.764,0,0,0,3.379-1.8c-.185-1.759-.43-3.546-.777-5.378-1.629.692-2.575,1.7-4.284,2.371Zm-4.407,7.216c1.068-.572,2.849-.836,3.458-1.605-1.221-.684-1.932-2.571-2.9-3.852a41.978,41.978,0,0,1-4.948,1.288,20.341,20.341,0,0,0,4.4,4.159Zm4.911-1.955c.305-1.279-.7-3.122-1.21-4.752l-2.356.939c1.091,1.487,1.777,3.938,3.563,3.8Z" transform="translate(-2955.801 -602.853)" fill="#171717" stroke="#171717" stroke-width="0.7" fill-rule="evenodd"/>
    <path id="Path_608" data-name="Path 608" d="M2977.235,647.008a22.263,22.263,0,0,1-13.608-4.815,21.517,21.517,0,0,1-8.351-18.856c.433-5.571,3.052-13.285,13.039-18.4h0a26.6,26.6,0,0,1,13.038-2.652c8.421.333,14.534,4.4,17.683,11.77a24.024,24.024,0,0,1-1.2,22c-3.432,5.422-9.894,8.448-14.712,10.033A18.835,18.835,0,0,1,2977.235,647.008Zm-10.368-3.6a20.468,20.468,0,0,0,14.143,2.419l-.821.038c-.391.018-.786.041-1.18.064-3.827.218-7.782.446-10.119-3.168l-.174-.269-.221.095-.191-.206c-.078-.084-.153-.171-.23-.258l-.582.172-.091.026a1.483,1.483,0,0,1,.191,0,1.857,1.857,0,0,1,1.538,1.2l.172.551-.576-.034a2.672,2.672,0,0,1-1.081-.359,1.961,1.961,0,0,0-.762-.273Zm9.345-2.432.153.191a17.8,17.8,0,0,0,2.168,2.165,21.465,21.465,0,0,1,1.934,1.871l.545.621a17.18,17.18,0,0,0,1.855-.5c4.674-1.536,10.927-4.453,14.245-9.632l-.487-.476a1.772,1.772,0,0,1-.458-.754,7.66,7.66,0,0,1-4.167,6.256l-.479.3-.121-.551a19.927,19.927,0,0,1-.305-2.045,13.668,13.668,0,0,0-.642-3.188l.053.282c.322,1.7.577,3.472.781,5.411l.026.243-.2.133a23.285,23.285,0,0,1-3.438,1.831l-.369.16-.153-.373c-.153-.381-.32-.763-.476-1.16a3.5,3.5,0,0,1,.055,1.569l-.067.284-.29.021a2.087,2.087,0,0,1-.916-.128l-.257.327a4.86,4.86,0,0,1-2.222,1.172,9.486,9.486,0,0,0-1.36.537l-.238.127-.207-.174c-.325-.273-.657-.536-.987-.8a15.456,15.456,0,0,1-3.475-3.452l-.291-.427-.2.043-.25.052-.153-.2c-.043-.058-.086-.115-.129-.171l-.264.183a5.247,5.247,0,0,1-1.541.7c.691-.119,1.391-.249,2.092-.4Zm-6.289,1.865c2.121,2.689,5.494,2.495,9.041,2.289l.327-.018c-.419-.418-.856-.806-1.283-1.186a20.043,20.043,0,0,1-2.1-2.071c-1.642.343-3.251.58-4.811.81Zm7.821-1.526a16.331,16.331,0,0,0,2.933,2.756c.269.212.537.426.8.644a12.965,12.965,0,0,1,1.238-.468,7.782,7.782,0,0,0,1.526-.629,8.665,8.665,0,0,1-1.679-2.258c-.238-.4-.482-.81-.735-1.173-.493.131-1,.287-1.5.44a24.676,24.676,0,0,1-2.576.7Zm-13.339.465a22.262,22.262,0,0,0,1.984,1.343l.163-.305a.917.917,0,0,1,.478-.424,3.86,3.86,0,0,1-2.614-.606Zm18.972-2.174c.2.305.383.644.563.967.61,1.08,1.176,2.106,2.053,2.248a8.117,8.117,0,0,0-.743-2.822c-.124-.326-.254-.662-.367-.993Zm2.925-1.4a31.2,31.2,0,0,0,1.424,4.027,22.4,22.4,0,0,0,2.747-1.474c-.177-1.633-.392-3.144-.653-4.6a15.132,15.132,0,0,0-1.517.905,13.97,13.97,0,0,1-2,1.147Zm-21.338-.305a19.672,19.672,0,0,0,2.705,3.737l.039.041c-.44-.557-.854-1.161-1.258-1.752-.477-.693-.966-1.411-1.484-2.022Zm.9-.153c.432.549.841,1.146,1.239,1.727a23.539,23.539,0,0,0,1.6,2.158,12.638,12.638,0,0,1,2.923-.61,8.988,8.988,0,0,0,2.871-.681,14.873,14.873,0,0,1-1.819-2.129c-.32-.426-.651-.865-.99-1.26a18.89,18.89,0,0,1-3.248.458,16.005,16.005,0,0,0-2.577.342Zm-4.774-.319.413.478c1.526,1.776,3.243,3.783,5.088,3.726a21.934,21.934,0,0,1-2.692-4.01,14.477,14.477,0,0,0-2.812-.191Zm21.059,1.856.153.211a15.125,15.125,0,0,1,.883,1.373,12.541,12.541,0,0,0-.737-1.2l-.305-.415,3.234-1.288.126.41.063.194c-.044-.166-.087-.33-.124-.494l-.079-.334.319-.127a11.914,11.914,0,0,0,2.18-1.2,13.555,13.555,0,0,1,2.094-1.181l.427-.183-.038-.105.241-.175c.578-.421,1.141-.865,1.686-1.294.907-.713,1.843-1.45,2.892-2.127l.444-.287.023.072.131-.188a7.978,7.978,0,0,1,1.354-1.374,7.125,7.125,0,0,0,1.239-1.25l.1-.14c-.141.137-.28.278-.419.42a9.128,9.128,0,0,1-2.018,1.662l-.438.249.108.215-.242.2c-1.1.915-2.3,1.805-3.466,2.664l-.916.678-.47.351-.153-.566c-.176-.65-.332-1.291-.489-1.934-.237-.975-.483-1.984-.8-3l-.1-.319.3-.153a11.582,11.582,0,0,0,3.137-2.521c.263-.27.527-.54.8-.807-.284.26-.557.524-.826.783a15.5,15.5,0,0,1-3.052,2.458l-.4.232-1.932-4.852.267-.179a23.21,23.21,0,0,0,2.594-2.115,27.812,27.812,0,0,1,2.183-1.831l.383-.281.209.426a10.242,10.242,0,0,1,.729,2.136,9.253,9.253,0,0,0,.714,2.063l.153.289-.253.2c-.17.136-.336.276-.5.418l.248.14c.992.565,1.125,1.831,1.253,3.052a8.079,8.079,0,0,0,.359,1.938l-.016-.253a26.641,26.641,0,0,0-.82-4.488c-.075-.314-.153-.629-.223-.94l-.057-.247.2-.153.218-.174-.174-.172a7.348,7.348,0,0,1-1.329-2.675,14.03,14.03,0,0,0-.661-1.67l-.153-.291.258-.2.037-.031-.217-.269a20.866,20.866,0,0,1-1.911-3.087c-.316-.583-.641-1.179-.98-1.735.565,1.251,1.2,2.388,1.81,3.49.305.554.61,1.108.916,1.678l.153.285-.249.206c-.505.421-.966.879-1.412,1.323a12.849,12.849,0,0,1-3.462,2.684l-.4.2-.153-.415a31.4,31.4,0,0,0-2.627-5.468l-.2-.329.325-.212a25.075,25.075,0,0,0,3.284-2.695c.417-.386.836-.772,1.271-1.151l.305-.269-.02-.027-.153-.224.153-.226c.192-.287.391-.571.589-.854a11.517,11.517,0,0,0,2.272-4.526l-.153.389a11.825,11.825,0,0,1-2.692,4.6l-.386.366-.241-.475a17.642,17.642,0,0,0-1.864-2.867,28.275,28.275,0,0,1,1.832,3.113l.4.742-.406.417a23.717,23.717,0,0,1-4.073,3.569l-.313.2-.223-.305a22.427,22.427,0,0,1-1.6-2.634,15.851,15.851,0,0,0-2.047-3.145l-.23-.246.2-.268a11.077,11.077,0,0,1,1.526-1.534,7.422,7.422,0,0,0,1.711-1.874c-.715.807-1.508,1.581-2.28,2.333l-.763.737-.253-.127a5.1,5.1,0,0,1-1.7-1.77,4.481,4.481,0,0,0-1.407-1.517,10.753,10.753,0,0,1,2.546,3.434l.161.363-.362.165-.084.038.212.1c1.479.725,2.395,2.608,3.281,4.425.273.561.555,1.141.847,1.671l.191.348-.925.517a27.665,27.665,0,0,1-3.834,1.891l-.305.116-.174-.278c-.081-.13-.153-.264-.238-.4.079.18.153.36.237.543l.153.366-.365.153c-1.034.443-2.066.847-3.088,1.221a22.88,22.88,0,0,0,3.073-1.155l.3-.141.194.264c.037.05.074.1.109.153q-.052-.152-.1-.305l-.118-.357.35-.137a24.808,24.808,0,0,0,4.1-2.081l.178-.11.191.085c1.138.5,1.741,2.033,2.323,3.51a15.425,15.425,0,0,0,.916,2.036l.183.305-.293.212a20.684,20.684,0,0,1-4.847,2.4l-.363.136-.153-.36c-.2-.493-.414-.966-.632-1.424.208.559.425,1.117.655,1.618l.168.366-.368.165a32.72,32.72,0,0,1-3.7,1.373c-.7.224-1.365.435-2.092.713l-.279.107-.181-.238-.028-.038.072.12-.458.166a20.5,20.5,0,0,1-5.526,1.273l-.292.021-2.136-5.353a27.714,27.714,0,0,0,1.068,2.817c.292.694.594,1.411.838,2.1l.133.372-.372.134a8.114,8.114,0,0,1-2.265.467,7.209,7.209,0,0,0,2.3-.429l.314-.115.168.288.032.055.435-.153a17.649,17.649,0,0,1,2.356-.594,13.741,13.741,0,0,0,2.956-.838l.293-.127.188.258c.04.055.081.11.121.166l.285-.185a13.42,13.42,0,0,1,2.868-1.183,21.146,21.146,0,0,0,2.862-1.106l.389-.2,2.166,5.437-.295.174c-.162.093-.412.238-.725.406a4.2,4.2,0,0,1,.891-.165h.1l-.084-.165.206-.136-2.178-5.469.288-.174c1.117-.673,3.281-1.7,4.8-2.371l.379-.168,1.917,4.811-.272.179-.2.13.192.209a7.048,7.048,0,0,1,1.362,3.815c.068.444.132.864.219,1.23l.063.266-.222.153a39.56,39.56,0,0,1-4.248,2.609l-.371.194-.176-.378c-.108-.235-.2-.458-.285-.685a6.2,6.2,0,0,1,.142,1.1v.278l-3.116,1.239-.178-.276a15.933,15.933,0,0,0-1.11-1.492c.178.244.356.49.531.732l.789,1.086-.551.152c-.458.128-.916.263-1.381.4-.847.246-1.711.5-2.565.719a24.617,24.617,0,0,0,2.451-.661c.595-.182,1.208-.369,1.8-.517Zm-8.648-2.73a17.59,17.59,0,0,0,1.679,2.136c.372.424.753.861,1.118,1.335,1.2-.264,2.458-.629,3.682-.984l.838-.243-.119-.165a36.756,36.756,0,0,0-2.581-3.3,20.825,20.825,0,0,1-3.224.9c-.456.105-.929.207-1.4.328Zm-1.544-.507.168.188c.418.467.813.99,1.195,1.5a13.838,13.838,0,0,0,1.753,2.049c-.163-.191-.326-.379-.488-.563a16.261,16.261,0,0,1-2.046-2.714l-.249-.44.486-.139c.426-.122.845-.224,1.255-.318-.647.113-1.273.2-1.88.27l-.249.029-.067-.1-.458.168a12.785,12.785,0,0,1-2.008.557,12.78,12.78,0,0,0,2.347-.409Zm19.343-.821a15.3,15.3,0,0,1,.6,3.1c.053.458.108.915.189,1.4a6.454,6.454,0,0,0,3.067-7.416c-.839.574-1.619,1.186-2.376,1.783-.481.378-.97.764-1.473,1.141Zm-30.937,2.574a21.14,21.14,0,0,0,1.575,1.8c-.352-.388-.7-.786-1.031-1.175Zm19.418-3.119a15.462,15.462,0,0,0,1.5,2.055c.381.467.773.948,1.143,1.488l1.984-.787a13.322,13.322,0,0,0-.658-2.6c-.152-.476-.3-.966-.436-1.444a15.2,15.2,0,0,0-2.454.862c-.358.145-.724.291-1.075.432ZM2963,636.7a9.049,9.049,0,0,1,1.272.194l.177.041.086.162.13.244.39-.153a6.817,6.817,0,0,1,1.473-.372q-.5.014-1,.02c-.33,0-.656.011-.986.02h-.26l-.111-.235c-.28-.584-.586-1.131-.885-1.659a17.079,17.079,0,0,1-1.56-3.34l-.129-.4.412-.1a8.183,8.183,0,0,1,1.526-.229,8.736,8.736,0,0,0-1.463.143l-.306.058-.133-.279a15.039,15.039,0,0,1-1.36-6.917v-.473l.193.03-.029-.267a15.94,15.94,0,0,1,.419-5.02c.142-.72.287-1.465.377-2.213l.037-.305.305-.041c.108-.015.213-.026.319-.035l-.421-.015.126-.482c.072-.273.139-.569.208-.876a11.062,11.062,0,0,1,.876-2.738,6.451,6.451,0,0,0-.786,1.831,7.715,7.715,0,0,1-.794,1.9l-.051.081-.084.049a1.08,1.08,0,0,1-.117.061l.174.055-.018.305a30.083,30.083,0,0,1-.432,3.27,25.869,25.869,0,0,0-.442,3.662l-.007.305-.3.07a2.434,2.434,0,0,1-.523.067,2.975,2.975,0,0,1,.8.61l.122.131-.018.179a16.3,16.3,0,0,0,.955,6.281l.142.458.046-.009.118.322a38.69,38.69,0,0,0,2.207,4.976l.27.5-.567.081c-.14.021-.262.044-.4.059Zm-3.478-.064h.551q-.277-.05-.54-.119l-.105-.026Zm25.119-3.968a13.341,13.341,0,0,1,.741,2.185,14.326,14.326,0,0,0,.544,1.712,39.37,39.37,0,0,0,3.565-2.207c-.064-.322-.117-.665-.173-1.026a7.522,7.522,0,0,0-.933-3.113c-.81.61-1.722,1.179-2.607,1.73-.391.238-.772.476-1.139.719Zm-26.971.571a20.428,20.428,0,0,0,1.517,2.885c-.306-.65-.635-1.257-.958-1.846-.189-.339-.387-.682-.57-1.038Zm4.961-1.438a17.684,17.684,0,0,0,1.355,2.777c.266.47.54.955.8,1.474l.74-.014a16.459,16.459,0,0,0,5.082-.635,27.212,27.212,0,0,1-1.643-2.8c-.232-.433-.472-.879-.713-1.306a9.985,9.985,0,0,1-3.344.375,11.318,11.318,0,0,0-2.287.131Zm-2.719,3.994a8.847,8.847,0,0,0,2.785.138,40.178,40.178,0,0,1-1.868-4.256,5.038,5.038,0,0,1-2.228-.348,7.392,7.392,0,0,0-1.055-.287,21.465,21.465,0,0,0,1.374,2.854c.327.6.678,1.224.983,1.9Zm18.427-1.4.188.2c.305.327.61.673.916,1.033a9.991,9.991,0,0,1-.57-.966l-.207-.4.105-.04c-.072.011-.145.018-.215.024l-.206.018-.134-.153q-.177-.21-.348-.439c.063.087.124.172.186.256l.305.414-.476.194a17.783,17.783,0,0,1-1.8.621,14.586,14.586,0,0,0,2.01-.65Zm20.426-6.5.273.433c.727,1.149-.053,2.794-.807,4.384a11.94,11.94,0,0,0-.915,2.306l-.125.584a23.552,23.552,0,0,0,1.129-21.234,19,19,0,0,0-4.2-6.246,24.75,24.75,0,0,1,1.589,2.136c.331.481.674.977,1.02,1.433l.124.153-.056.194c-.076.264-.153.529-.241.795l.386.191c1.093.542,1.537,2.191,1.927,3.647a12.809,12.809,0,0,0,.491,1.581l.087.2-.127.182q-.2.282-.4.562l.28.392c1.12,1.567.789,5.318.61,7.325l-.017.194-.164.105a6.8,6.8,0,0,0-.872.681Zm-29.414,3.74.313.586a21.907,21.907,0,0,0,1.886,3.116c-.635-1.013-1.254-2.078-1.856-3.112Zm.618-.52.414.71c.627,1.077,1.273,2.188,1.932,3.234a20.547,20.547,0,0,0,4.791-1.085c-.441-.641-.858-1.337-1.262-2.014s-.83-1.392-1.271-2.025a15.61,15.61,0,0,1-2.815.763c-.608.123-1.188.239-1.8.419Zm26.6.1a4.659,4.659,0,0,1,.285,1.924c0,.247,0,.458.017.656.186-.466.413-.948.636-1.419a8.019,8.019,0,0,0,1.021-3.006c-.272.282-.576.545-.875.8a8.812,8.812,0,0,0-1.1,1.042Zm-20.325-1.564c.385.54.742,1.137,1.088,1.718a19.1,19.1,0,0,0,1.352,2.062,13.826,13.826,0,0,0,4.047-1.628l-1.6-3.989a25.469,25.469,0,0,1-2.579.963,17.8,17.8,0,0,0-2.319.869Zm13.785-.458c.275.931.5,1.843.714,2.731.108.449.218.9.334,1.347l.443-.327c1.068-.794,2.178-1.611,3.2-2.441a8.5,8.5,0,0,1-.417-2.168,4.067,4.067,0,0,0-.625-2.257c-.2.2-.4.4-.594.61a12.917,12.917,0,0,1-3.063,2.51Zm5.646,2.005.11.36a10.428,10.428,0,0,1,.275,1.123,2.9,2.9,0,0,0-.3-1.326Zm-7.958-1.474-.72.458c-.858.542-1.741,1.1-2.562,1.671.305-.2.61-.389.928-.583.788-.493,1.612-1,2.344-1.54Zm-5.077-2.611,1.564,3.928c.763-.526,1.58-1.038,2.367-1.535.5-.313.99-.627,1.476-.943l-1.373-3.436c-1.638.741-3.149,1.484-4.049,1.994Zm-22.767,3.731a2.963,2.963,0,0,0,1.141-.008l.141-.031-.337.031a5.744,5.744,0,0,1-.961.014Zm-2.846-.652a3.861,3.861,0,0,1,.61.049c-.305-.142-.594-.295-.855-.443l-.166-.1-.029-.191a26.006,26.006,0,0,1-.266-7.056l.078-.63.306.2.056-.238c.091-.394.169-.894.255-1.425.287-1.816.646-4.077,1.917-4.865a1.88,1.88,0,0,1,.865-.279c-.093-.058-.114-.062-.152-.053l-.5.125v-.511a3.155,3.155,0,0,1,.188-1.068,20.281,20.281,0,0,0-3.25,9.7,21.066,21.066,0,0,0,.562,6.8h.317Zm4.055-5.847a13.984,13.984,0,0,0,1.152,5.849,13.589,13.589,0,0,1,2.256-.105,9.7,9.7,0,0,0,3.119-.317c-.209-.551-.449-1.122-.681-1.679a20.992,20.992,0,0,1-1.285-3.638,30.3,30.3,0,0,1-4.581-.1Zm-3.737,4.855a5.95,5.95,0,0,0,2.9.864,16.432,16.432,0,0,1-.852-5.913,3.836,3.836,0,0,0-1.5-.72,8.827,8.827,0,0,1-.854-.305,26.4,26.4,0,0,0,.3,6.081Zm9.836-4.912,2.068,5.188a19.616,19.616,0,0,0,4.569-1.039,30.079,30.079,0,0,1-2.314-4.827,11.981,11.981,0,0,1-2.551.433,14.258,14.258,0,0,0-1.787.252Zm28.053.276c.053.23.109.458.163.691a33.25,33.25,0,0,1,.781,3.957,10.386,10.386,0,0,0,1.307-1.181,10.616,10.616,0,0,1,1.549-1.373,17.612,17.612,0,0,0-.183-6.008,16.126,16.126,0,0,1-3.637,3.92Zm-22.117-1.329a23.368,23.368,0,0,0,2.289,4.834c.638-.235,1.221-.423,1.848-.621a33.4,33.4,0,0,0,3.257-1.175c-.247-.575-.475-1.193-.7-1.793a16.99,16.99,0,0,0-1.374-3.118,26.881,26.881,0,0,1-3.177,1.149C2974.549,622.724,2973.847,622.948,2973.115,623.232Zm14.969,1.006,1.351,3.389a16.162,16.162,0,0,0,2.5-2.1c.447-.432.906-.878,1.413-1.3a10.739,10.739,0,0,1-.636-1.938,11.278,11.278,0,0,0-.474-1.537c-.61.479-1.178.987-1.728,1.483a25.785,25.785,0,0,1-2.435,2Zm-16.1-1.627.134.377a27.692,27.692,0,0,0,1.171,2.8c-.372-.855-.716-1.753-1.054-2.639l-.141-.365.362-.153c.172-.07.342-.136.509-.2l-.561.166-.356.1-.128-.348q-.11-.295-.209-.588.058.243.108.482l.075.349-.34.111a13.154,13.154,0,0,1-2.97.545,16.174,16.174,0,0,0-1.974.281l-.365.081-.1-.359a24.537,24.537,0,0,1-.807-6.549l-.032-1.035.288-.092a11.15,11.15,0,0,1,1.743-.369l-.473.06c-.342.041-.664.079-1,.14l-.507.092.038-.513a25.45,25.45,0,0,1,.366-2.594c.116-.653.235-1.329.305-2.005l.026-.227.211-.092a6.916,6.916,0,0,1,2.656-.58l.357-.015.053.351v-.243l-.01-.444.444.04a3.685,3.685,0,0,0,1.276-.327,3.961,3.961,0,0,1,1.628-.374l.2.018.105.177c.12.208.245.414.368.62l.168.279c-.153-.278-.293-.549-.441-.813l-.212-.374.386-.183c.884-.418,1.689-.888,2.469-1.344l.745-.433.217.206.029.026.134-.244a5.815,5.815,0,0,1,.52-.791,7.734,7.734,0,0,1-.762.5l-.28.163-.217-.239a6.843,6.843,0,0,0-.667-.641c.194.2.38.41.562.63l.343.413-.5.208a9.021,9.021,0,0,0-1.045.543,7.473,7.473,0,0,1-1.87.842l-.272.075.012.017-.476.2a6.594,6.594,0,0,1-2.4.7l-.438-.011v-.015l-.046.023a9.024,9.024,0,0,1-2.463.763l-.719.142.028-.09-.2.066a1.93,1.93,0,0,1-.287.072l.191.027.012.331a11.637,11.637,0,0,1-.3,2.728,12.83,12.83,0,0,0-.29,2.087l-.012.385h-.181l.032.305c.079.752.13,1.5.178,2.225a28.772,28.772,0,0,0,.627,4.909l.095.4-.4.087a10.411,10.411,0,0,1-1.934.237c.714,0,1.453-.017,2.226-.043l.351-.011v.047l.214-.06a12.714,12.714,0,0,1,2.344-.371,10.255,10.255,0,0,0,2.731-.514Zm7.8-2.034a27.4,27.4,0,0,0,1.3,2.974c.3.61.6,1.234.885,1.9a20.323,20.323,0,0,0,4.01-1.959c-.29-.562-.542-1.2-.788-1.824a6.589,6.589,0,0,0-1.727-2.98,25.711,25.711,0,0,1-3.691,1.885Zm18.537-.58c-.839,1.08-1.737,2.124-2.594,3.1a13.716,13.716,0,0,0,2.59-3.1Zm-37.123,2.78a14.108,14.108,0,0,0,3.9-.015,31.009,31.009,0,0,1-.554-4.638c-.04-.583-.08-1.181-.136-1.782a9.42,9.42,0,0,1-1.347.02,9.5,9.5,0,0,0-1.081,0c-.093.667-.221,1.32-.346,1.955a15.9,15.9,0,0,0-.45,4.457Zm32.247-3.434c.207.458.387.975.563,1.476a9.893,9.893,0,0,0,.871,2.037,56.765,56.765,0,0,0,3.662-4.492,14.9,14.9,0,0,1-.444-1.48,8.262,8.262,0,0,0-1.084-2.782,10.144,10.144,0,0,1-3.58,5.238Zm-27.326-3.078.012.427a24.9,24.9,0,0,0,.677,6c.587-.11,1.151-.166,1.7-.221a13.543,13.543,0,0,0,2.457-.4c-.223-.954-.534-1.958-.835-2.934-.356-1.151-.721-2.335-.954-3.461a12.552,12.552,0,0,1-1.641.327,12.406,12.406,0,0,0-1.415.267Zm18.97,1.424a32.167,32.167,0,0,1,2.337,4.855,12.926,12.926,0,0,0,2.864-2.33c.385-.383.782-.778,1.221-1.158-.25-.467-.505-.925-.763-1.382-.583-1.052-1.186-2.136-1.735-3.327q-.43.387-.85.778a27.466,27.466,0,0,1-3.076,2.56Zm-27.488,3.967c.128.067.253.136.374.2a2.51,2.51,0,0,0,1.374.458,28.628,28.628,0,0,1,.441-3.441c.153-.926.321-1.881.4-2.854a1.194,1.194,0,0,0-.839.153c-.96.6-1.3,2.747-1.549,4.312-.074.414-.135.812-.211,1.166Zm13.053-6.3c.355,1.05.632,2.069.9,3.06.29,1.068.591,2.184.991,3.32a52.4,52.4,0,0,0,5.2-1.872c-.424-.964-.879-1.885-1.32-2.777-.458-.916-.916-1.862-1.358-2.861-.531.139-1.052.255-1.56.369a24.468,24.468,0,0,0-2.854.758Zm5.815-1.689a22.171,22.171,0,0,1,1.487,2.954,26.627,26.627,0,0,0,1.187,2.451,28.8,28.8,0,0,0,3.419-1.718l.239-.134c-.233-.444-.458-.908-.677-1.358a9.674,9.674,0,0,0-2.7-3.945,19.333,19.333,0,0,1-2.956,1.747Zm-6.257,2.9c.124.47.264.948.408,1.425-.138-.465-.275-.942-.428-1.421Zm26.135-3.078a12.716,12.716,0,0,1-2.461,4.387,8.531,8.531,0,0,0,2.448-4.384Zm-6.354-.626c.472.71.905,1.509,1.326,2.289a24.31,24.31,0,0,0,1.568,2.623,12.86,12.86,0,0,0,3.1-5.759c-.315-.424-.624-.868-.916-1.3a15.368,15.368,0,0,0-2.324-2.866,13.348,13.348,0,0,1-2.313,4.4q-.231.307-.444.621Zm-13.859,1.778c.322.7.654,1.373.981,2.03-.33-.7-.65-1.4-1-2.025Zm4.955-3.688a18.489,18.489,0,0,1,1.932,3.052c.421.763.856,1.556,1.322,2.232a24.545,24.545,0,0,0,3.619-3.243l-.122-.229c-1.08-2.017-2.193-4.1-3.757-4.883a8.8,8.8,0,0,1-1.785,1.918,12.909,12.909,0,0,0-1.225,1.157Zm-17.725,4.619a7.211,7.211,0,0,0,.985-.026l-.543.014Zm6.48-1.112.015.049-.33.142a7.241,7.241,0,0,1-1.582.472,8.068,8.068,0,0,0,1.408-.35l.446-.152.034.192.18-.069a23.168,23.168,0,0,1,3.322-.926c.593-.133,1.205-.27,1.82-.441l-.288.056c-.578.113-1.187.264-1.778.409a21.611,21.611,0,0,1-3.1.61Zm-7.346.325c.421,0,.86-.011,1.285-.021.259,0,.519-.014.777-.018a16.1,16.1,0,0,1,.284-1.831,12.309,12.309,0,0,0,.294-2.194c-1.579-.037-2.06,1.506-2.545,3.655-.045.142-.076.281-.106.417Zm-2.514-.366a1.5,1.5,0,0,1,.305.163c.121.079.153.1.207.087a7.426,7.426,0,0,0,.65-1.62c.1-.314.2-.633.32-.946a4.577,4.577,0,0,0-1.5,2.323Zm6.858-3.711c-.076.621-.185,1.232-.288,1.824-.116.658-.237,1.332-.3,2.017.181-.024.357-.046.531-.067a8.864,8.864,0,0,0,2.118-.438,9.43,9.43,0,0,1-.216-2.419c0-.449,0-.876-.039-1.32a5.965,5.965,0,0,0-1.823.409Zm3.339-.763c.024.885.069,1.789.113,2.666.015.328.032.658.048.986a25.582,25.582,0,0,0,2.562-.542c.448-.112.916-.224,1.364-.324a17.275,17.275,0,0,0-1.557-3.038l-.256-.427a4.992,4.992,0,0,0-1.086.324,6.109,6.109,0,0,1-1.206.371Zm4.869,2.611c.043.113.082.229.121.346l.138.417.116-.032.288-.143.374-.188c-.124.049-.253.095-.387.137l-.323.1-.153-.305a2.568,2.568,0,0,1-.193-.32Zm-5.573-.305c0,.2.013.406.031.61l-.011-.214c-.021-.116-.021-.246-.036-.382Zm9.807-1.256a8.361,8.361,0,0,0-1.307.841c-.213.153-.428.316-.662.47a13.043,13.043,0,0,0,1.823-1.193Zm-5.267-2.272c.421.774.826,1.6,1.221,2.4.18.368.359.736.542,1.1a7.121,7.121,0,0,0,1.729-1.027,10,10,0,0,1,1.237-.818,10.571,10.571,0,0,0-2.35-2.977l-.227.133c-.7.415-1.4.826-2.161,1.209Zm11.206-2.594c.381.5.778.992,1.163,1.466a25.055,25.055,0,0,1,2.636,3.693,12.153,12.153,0,0,0,2.129-3.931q.106-.272.214-.543a11.066,11.066,0,0,0-5.588-1.984,1.453,1.453,0,0,1-.353.876c-.168.211-.229.31-.214.44Zm-22.571,3.858a.488.488,0,0,1,.287.087.539.539,0,0,1,.195.517.577.577,0,0,0,0,.1l.017.082a2.445,2.445,0,0,1,.931-.681l-.1-.282c-.348-.964.471-1.454,1.013-1.776.3-.177.61-.36.685-.551l.038-.089a24.734,24.734,0,0,0-3.287,2.626.812.812,0,0,1,.209-.026Zm3.861-1.315c-.02.052-.042.1-.06.153a1.665,1.665,0,0,0-.177.629l.02.095.073-.246c.04-.2.085-.409.131-.621Zm11.271-2.208a6.332,6.332,0,0,1,1.364,1.567,5.8,5.8,0,0,0,1.167,1.373l.331-.325c.832-.809,1.689-1.645,2.431-2.507a3.967,3.967,0,0,0-3.128-1.59,2.91,2.91,0,0,0-2.17,1.489Zm-12.875,2.736h.223a2.61,2.61,0,0,0,.36,0,3.25,3.25,0,0,1,.216-.668c-.1.065-.205.127-.306.188a2.191,2.191,0,0,0-.642.481.622.622,0,0,0,.139.009Zm3.975-2.777c-1.221.4-1.373,1.21-1.555,2.209-.017.087-.032.175-.05.263a7.352,7.352,0,0,0,1.467-.458,4.594,4.594,0,0,1,.066-1.2,5.114,5.114,0,0,0,.054-.806Zm14.955.481.211.079a5.155,5.155,0,0,1,1.984,1.448l-.269-.333c-.409-.5-.83-1.019-1.236-1.563l-.046-.06-.02-.073a1.274,1.274,0,0,1,.3-1.169c.168-.23.247-.339.172-.533-.033.069-.065.153-.1.229a1.622,1.622,0,0,1-.806.977l-.2.1-.188-.121c-.128-.082-.256-.169-.38-.259a6.976,6.976,0,0,1,.629.7l.2.252-.2.249Zm-13.388-.548a14.829,14.829,0,0,1-.142,1.831,6.9,6.9,0,0,0,1.167-.392c-.089-.131-.175-.266-.261-.4a6.783,6.783,0,0,0-.779-1.033Zm-.852,1.018a5.626,5.626,0,0,0-.065.6c0-.194.033-.394.049-.592Zm2.261-.447.024.037c.177.271.342.529.522.763l.195.25-.067-.117a6.554,6.554,0,0,0-.695-.923Zm-5.837.269.186.083a.708.708,0,0,1,.458.61,2.962,2.962,0,0,1,.886-1.624q-.81.457-1.543.94Zm5.457-2.014a9.383,9.383,0,0,0,.754.955,9.939,9.939,0,0,1,.82,1.045,7.413,7.413,0,0,0,1.4-.677c.206-.119.416-.241.645-.359a2.746,2.746,0,0,0-3.641-.955Zm-1.941.266.081.392c.008.043.017.085.023.127,0-.105-.014-.212-.025-.321l-.041-.423q-.437.2-.873.423h0c.138-.043.285-.082.443-.116Zm.264-.325.333.105a2,2,0,0,1,.667.372c-.081-.122-.153-.252-.233-.389l-.185-.336c-.208.089-.406.171-.6.256Zm5.666-.743a7.753,7.753,0,0,1,1.05.887,6.266,6.266,0,0,0,1.192-.986c-.224,0-.449-.015-.669-.027a3.439,3.439,0,0,0-1.584.136Zm7.345-.1c.164.119.327.243.485.366.2.153.382.293.571.424a1.243,1.243,0,0,0,.242-.438c0-.012.011-.026.015-.038-.21-.046-.432-.1-.659-.153s-.443-.1-.672-.152Zm1.6-.476,1.221.2a24.768,24.768,0,0,1,3.292.68,21.46,21.46,0,0,0-7.576-1.6,27.637,27.637,0,0,0-8.6.98,3.1,3.1,0,0,1,1.462.348l.27-.284a3.039,3.039,0,0,1,2.609-.665,4.322,4.322,0,0,0,1.415-.062l1.052-.305-.611.915a6.624,6.624,0,0,1-.523.684,3.186,3.186,0,0,1,1.461-.5,3.772,3.772,0,0,1,1.974.421,2.772,2.772,0,0,0-.779-.321l-1-.227.891-.508a3.993,3.993,0,0,1,2.693.113c.273.067.536.133.776.18Z" transform="translate(-2955.202 -602.25)" fill="#171717" stroke="#171717" stroke-width="0.7"/>
  </g>
</svg>
